<svg width="50" height="50" viewBox="0 0 50 50" fill="none" xmlns="http://www.w3.org/2000/svg">
<g filter="url(#filter0_d_24_521)">
<path d="M0.335139 11.447C0.598421 5.40883 5.40883 0.598421 11.447 0.335139C15.5837 0.154765 20.2312 0 24 0C27.7688 0 32.4163 0.154765 36.553 0.335139C42.5912 0.598421 47.4016 5.40883 47.6649 11.447C47.8452 15.5837 48 20.2312 48 24C48 27.7688 47.8452 32.4163 47.6649 36.553C47.4016 42.5912 42.5912 47.4016 36.553 47.6649C32.4163 47.8452 27.7688 48 24 48C20.2312 48 15.5837 47.8452 11.447 47.6649C5.40883 47.4016 0.598421 42.5912 0.335139 36.553C0.154765 32.4163 0 27.7688 0 24C0 20.2312 0.154765 15.5837 0.335139 11.447Z" fill="url(#paint0_linear_24_521)"/>
</g>
<path d="M21.5029 16.2572C21.1992 15.4979 20.4638 15 19.646 15H16.8947C15.8483 15 15 15.8483 15 16.8948C15 25.7895 22.2108 33 31.1055 33C32.1519 33 33 32.1518 33 31.1053L32.9999 28.354C32.9999 27.5362 32.5019 26.8009 31.7426 26.4971L29.1071 25.4429C28.4251 25.1701 27.6485 25.293 27.0842 25.7633L26.4031 26.3307C25.6084 26.9929 24.44 26.94 23.7085 26.2085L21.7914 24.2915C21.0599 23.5601 21.0072 22.3915 21.6694 21.5969L22.2368 20.916C22.7071 20.3516 22.83 19.5749 22.5572 18.8929L21.5029 16.2572Z" stroke="white" stroke-width="2" stroke-linecap="round" stroke-linejoin="round"/>
<defs>
<filter id="filter0_d_24_521" x="0" y="0" width="50" height="50" filterUnits="userSpaceOnUse" color-interpolation-filters="sRGB">
<feFlood flood-opacity="0" result="BackgroundImageFix"/>
<feColorMatrix in="SourceAlpha" type="matrix" values="0 0 0 0 0 0 0 0 0 0 0 0 0 0 0 0 0 0 127 0" result="hardAlpha"/>
<feOffset dx="2" dy="2"/>
<feComposite in2="hardAlpha" operator="out"/>
<feColorMatrix type="matrix" values="0 0 0 0 0 0 0 0 0 0 0 0 0 0 0 0 0 0 0.06 0"/>
<feBlend mode="normal" in2="BackgroundImageFix" result="effect1_dropShadow_24_521"/>
<feBlend mode="normal" in="SourceGraphic" in2="effect1_dropShadow_24_521" result="shape"/>
</filter>
<linearGradient id="paint0_linear_24_521" x1="1.23746" y1="2.03526" x2="57.4049" y2="7.401" gradientUnits="userSpaceOnUse">
<stop stop-color="#E65C00"/>
<stop offset="1" stop-color="#FF8C42"/>
</linearGradient>
</defs>
</svg>
