<svg width="24" height="24" viewBox="0 0 24 24" fill="none" xmlns="http://www.w3.org/2000/svg">
<path d="M8.70711 11.7782C8.31658 11.3877 7.68342 11.3877 7.29289 11.7782C6.90237 12.1688 6.90237 12.8019 7.29289 13.1925L8 12.4854L8.70711 11.7782ZM12.2426 16.728L11.5355 17.4351C11.7231 17.6226 11.9774 17.728 12.2427 17.728C12.5079 17.728 12.7622 17.6226 12.9498 17.4351L12.2426 16.728ZM21.4346 8.94976C21.8251 8.55923 21.8251 7.92606 21.4346 7.53555C21.044 7.14504 20.4109 7.14505 20.0203 7.53559L20.7275 8.24268L21.4346 8.94976ZM3.70711 11.7782C3.31658 11.3877 2.68342 11.3877 2.29289 11.7782C1.90237 12.1688 1.90237 12.8019 2.29289 13.1925L3 12.4854L3.70711 11.7782ZM6.53553 17.4351C6.92606 17.8256 7.55922 17.8256 7.94975 17.4351C8.34027 17.0446 8.34027 16.4114 7.94975 16.0209L7.24264 16.728L6.53553 17.4351ZM16.4382 8.94656C16.827 8.55426 16.8241 7.92111 16.4318 7.53236C16.0395 7.14362 15.4064 7.1465 15.0176 7.53879L15.7279 8.24268L16.4382 8.94656ZM11.7897 10.7962C11.4009 11.1885 11.4038 11.8217 11.7961 12.2104C12.1884 12.5991 12.8216 12.5963 13.2103 12.204L12.5 11.5001L11.7897 10.7962ZM8 12.4854L7.29289 13.1925L11.5355 17.4351L12.2426 16.728L12.9497 16.0209L8.70711 11.7782L8 12.4854ZM12.2426 16.728L12.9498 17.4351L21.4346 8.94976L20.7275 8.24268L20.0203 7.53559L11.5355 16.0209L12.2426 16.728ZM3 12.4854L2.29289 13.1925L6.53553 17.4351L7.24264 16.728L7.94975 16.0209L3.70711 11.7782L3 12.4854ZM15.7279 8.24268L15.0176 7.53879L11.7897 10.7962L12.5 11.5001L13.2103 12.204L16.4382 8.94656L15.7279 8.24268Z" fill="url(#paint0_linear_15_203)"/>
<defs>
<linearGradient id="paint0_linear_15_203" x1="3.12573" y1="8.4447" x2="22.8173" y2="12.2949" gradientUnits="userSpaceOnUse">
<stop stop-color="#E65C00"/>
<stop offset="1" stop-color="#FF8C42"/>
</linearGradient>
</defs>
</svg>
