<svg width="24" height="24" viewBox="0 0 24 24" fill="none" xmlns="http://www.w3.org/2000/svg">
<path d="M9.70711 8.29289C9.31658 7.90237 8.68342 7.90237 8.29289 8.29289C7.90237 8.68342 7.90237 9.31658 8.29289 9.70711L9 9L9.70711 8.29289ZM14.2928 15.707C14.6833 16.0975 15.3165 16.0975 15.707 15.707C16.0975 15.3165 16.0975 14.6833 15.707 14.2928L14.9999 14.9999L14.2928 15.707ZM8.29289 14.2929C7.90237 14.6834 7.90237 15.3166 8.29289 15.7071C8.68342 16.0976 9.31658 16.0976 9.70711 15.7071L9 15L8.29289 14.2929ZM15.707 9.70723C16.0975 9.3167 16.0975 8.68354 15.707 8.29302C15.3165 7.90249 14.6833 7.90249 14.2928 8.29302L14.9999 9.00012L15.707 9.70723ZM12 21V20C7.58172 20 4 16.4183 4 12H3H2C2 17.5228 6.47715 22 12 22V21ZM3 12H4C4 7.58172 7.58172 4 12 4V3V2C6.47715 2 2 6.47715 2 12H3ZM12 3V4C16.4183 4 20 7.58172 20 12H21H22C22 6.47715 17.5228 2 12 2V3ZM21 12H20C20 16.4183 16.4183 20 12 20V21V22C17.5228 22 22 17.5228 22 12H21ZM9 9L8.29289 9.70711L14.2928 15.707L14.9999 14.9999L15.707 14.2928L9.70711 8.29289L9 9ZM9 15L9.70711 15.7071L15.707 9.70723L14.9999 9.00012L14.2928 8.29302L8.29289 14.2929L9 15Z" fill="url(#paint0_linear_676_3060)"/>
<defs>
<linearGradient id="paint0_linear_676_3060" x1="3" y1="3" x2="25.0439" y2="5.15323" gradientUnits="userSpaceOnUse">
<stop stop-color="#E65C00"/>
<stop offset="1" stop-color="#FF8C42"/>
</linearGradient>
</defs>
</svg>
