<svg xmlns="http://www.w3.org/2000/svg" width="143" height="44" fill="none" viewBox="0 0 143 44"><g filter="url(#a)"><path fill="url(#b)" d="M.288 11.783C.605 5.648 5.656.896 11.798.773 26.516.478 52.988 0 70 0c17.099 0 44.235.483 59.203.778 6.144.12 11.192 4.873 11.51 11.01.162 3.128.287 6.443.287 9.212s-.125 6.084-.287 9.212c-.318 6.137-5.366 10.89-11.51 11.01C114.235 41.518 87.099 42 70 42c-17.013 0-43.484-.478-58.202-.773C5.655 41.104.604 36.352.287 30.217.125 27.087 0 23.77 0 21s.125-6.088.288-9.217"/><g filter="url(#c)"><path fill="#fff" d="M22.704 26.304q-1.584 0-2.72-.56t-1.856-1.456a6.2 6.2 0 0 1-1.04-1.952 6.7 6.7 0 0 1-.336-2.032v-.352q0-1.088.336-2.144a5.9 5.9 0 0 1 1.072-1.92 5.16 5.16 0 0 1 1.824-1.376q1.12-.528 2.64-.528 1.584 0 2.752.576a4.6 4.6 0 0 1 1.888 1.6q.705 1.024.848 2.4h-2.288q-.128-.8-.576-1.344a2.6 2.6 0 0 0-1.104-.832 3.8 3.8 0 0 0-1.52-.288q-.864 0-1.536.304-.672.288-1.12.832-.448.545-.688 1.28a5.6 5.6 0 0 0-.224 1.632q0 .864.224 1.6.24.736.704 1.296.465.544 1.136.848.688.304 1.584.304 1.312 0 2.208-.64.912-.656 1.104-1.824h2.288a5.3 5.3 0 0 1-.848 2.288q-.688 1.04-1.888 1.664t-2.864.624m11.197 0q-1.152 0-2.032-.368a4.4 4.4 0 0 1-1.488-.992 4.5 4.5 0 0 1-.928-1.44 4.6 4.6 0 0 1-.304-1.664v-.336q0-.896.32-1.696a4.5 4.5 0 0 1 .944-1.44 4.3 4.3 0 0 1 1.504-.992q.88-.368 1.984-.368t1.984.368a4.1 4.1 0 0 1 1.488.992q.623.624.944 1.44.32.8.32 1.696v.336a4.4 4.4 0 0 1-.32 1.664 4.3 4.3 0 0 1-.912 1.44 4.4 4.4 0 0 1-1.488.992q-.879.368-2.016.368m0-1.904q.816 0 1.376-.352a2.35 2.35 0 0 0 .848-.976q.288-.624.288-1.408 0-.8-.304-1.408a2.2 2.2 0 0 0-.864-.976q-.56-.368-1.344-.368-.783 0-1.36.368a2.33 2.33 0 0 0-.864.976q-.304.608-.304 1.408 0 .784.288 1.408.304.607.864.976.56.352 1.376.352m6.364 1.6v-8.688h1.76v3.728h-.16q0-1.328.352-2.208.351-.896 1.04-1.344.703-.448 1.744-.448h.096q1.551 0 2.352 1.008.8.991.8 2.976V26h-2.224v-5.168q0-.8-.464-1.296-.448-.495-1.248-.496-.816 0-1.328.512-.496.496-.496 1.344V26zm13.83.112q-1.2 0-1.983-.304a2.23 2.23 0 0 1-1.152-1.056q-.384-.752-.384-2.016l.016-7.872h2.08l-.016 8.016q0 .64.336.992.351.336.992.336h1.36v1.904zM49.2 18.944v-1.632h6.144v1.632zM62.123 26v-2.576h-.368V20.56q0-.752-.368-1.12t-1.136-.368q-.4 0-.96.016t-1.136.048q-.56.016-1.008.048v-1.888q.368-.032.832-.064.465-.032.944-.032.496-.015.928-.016 1.344 0 2.224.352.895.352 1.344 1.104.465.752.464 1.968V26zm-2.8.224q-.944 0-1.664-.336a2.6 2.6 0 0 1-1.104-.96q-.384-.624-.384-1.504 0-.96.464-1.568.48-.608 1.328-.912.864-.304 2.016-.304h2.016v1.328h-2.048q-.768 0-1.184.384-.4.367-.4.96t.4.96q.416.368 1.184.368.465 0 .848-.16.4-.176.656-.576.272-.415.304-1.12l.544.624q-.08.912-.448 1.536a2.4 2.4 0 0 1-.992.96q-.624.32-1.536.32m10.478.08q-1.136 0-1.968-.384a4.15 4.15 0 0 1-1.376-1.024 4.4 4.4 0 0 1-.816-1.44 5 5 0 0 1-.272-1.632v-.304q0-.88.272-1.68a4.3 4.3 0 0 1 .848-1.44 4 4 0 0 1 1.376-1.008q.833-.384 1.92-.384 1.137 0 2.032.448a3.5 3.5 0 0 1 1.424 1.216q.545.784.608 1.824h-2.16a1.74 1.74 0 0 0-.576-1.12q-.48-.448-1.328-.448-.735 0-1.232.352-.48.352-.72.976-.24.608-.24 1.408 0 .768.224 1.392.24.624.72.976.495.352 1.264.352.576 0 .992-.208t.656-.576q.256-.368.32-.832h2.16q-.063 1.056-.624 1.856a3.74 3.74 0 0 1-1.456 1.232q-.896.448-2.048.448m9.366-.192q-1.2 0-1.984-.304a2.23 2.23 0 0 1-1.152-1.056q-.384-.752-.384-2.016l.016-7.872h2.08l-.016 8.016q0 .64.336.992.351.336.992.336h1.36v1.904zm-4.896-7.168v-1.632h6.144v1.632zm15.816 7.36q-1.632 0-2.752-.624a4.2 4.2 0 0 1-1.712-1.744q-.576-1.136-.576-2.656v-6.96h2.272v7.088q0 .832.32 1.472.32.624.928.976.623.336 1.52.336.879 0 1.488-.336.624-.352.928-.976.32-.624.32-1.472V14.32h2.272v6.96q0 1.52-.576 2.656a4 4 0 0 1-1.68 1.744q-1.12.624-2.752.624m10.324-.032q-1.792 0-2.816-.752-1.008-.768-1.056-2.112h2q.048.448.496.816t1.408.368q.8 0 1.264-.288.48-.288.48-.784a.8.8 0 0 0-.368-.688q-.352-.256-1.216-.336l-.768-.08q-1.455-.16-2.24-.832-.784-.672-.784-1.792 0-.896.448-1.504.449-.608 1.232-.912.8-.32 1.824-.32 1.6 0 2.592.704t1.04 2.064h-2q-.032-.448-.448-.768t-1.2-.32q-.704 0-1.088.272t-.384.704q0 .415.304.64.32.224 1.024.304l.768.08q1.536.16 2.4.848.88.688.88 1.856 0 .864-.48 1.504-.464.624-1.312.976t-2 .352"/><path stroke="#fff" stroke-linecap="round" stroke-linejoin="round" stroke-width="2" d="m108 26 10-10m0 0h-8m8 0v8"/></g></g><defs><filter id="a" width="143" height="44" x="0" y="0" color-interpolation-filters="sRGB" filterUnits="userSpaceOnUse"><feFlood flood-opacity="0" result="BackgroundImageFix"/><feColorMatrix in="SourceAlpha" result="hardAlpha" values="0 0 0 0 0 0 0 0 0 0 0 0 0 0 0 0 0 0 127 0"/><feOffset dx="2" dy="2"/><feComposite in2="hardAlpha" operator="out"/><feColorMatrix values="0 0 0 0 0 0 0 0 0 0 0 0 0 0 0 0 0 0 0.06 0"/><feBlend in2="BackgroundImageFix" result="effect1_dropShadow_15_122"/><feBlend in="SourceGraphic" in2="effect1_dropShadow_15_122" result="shape"/></filter><filter id="c" width="111" height="26" x="16" y="9" color-interpolation-filters="sRGB" filterUnits="userSpaceOnUse"><feFlood flood-opacity="0" result="BackgroundImageFix"/><feColorMatrix in="SourceAlpha" result="hardAlpha" values="0 0 0 0 0 0 0 0 0 0 0 0 0 0 0 0 0 0 127 0"/><feOffset dx="2" dy="2"/><feComposite in2="hardAlpha" operator="out"/><feColorMatrix values="0 0 0 0 0 0 0 0 0 0 0 0 0 0 0 0 0 0 0.06 0"/><feBlend in2="BackgroundImageFix" result="effect1_dropShadow_15_122"/><feBlend in="SourceGraphic" in2="effect1_dropShadow_15_122" result="shape"/></filter><linearGradient id="b" x1="1" x2="149" y1="1" y2="47.5" gradientUnits="userSpaceOnUse"><stop stop-color="#e65c00"/><stop offset="1" stop-color="#ff8c42"/></linearGradient></defs></svg>