<svg width="56" height="56" viewBox="0 0 56 56" fill="none" xmlns="http://www.w3.org/2000/svg">
<g filter="url(#filter0_d_86_165)">
<path d="M0.436051 11.5568C0.712128 5.51921 5.51921 0.712128 11.5568 0.436051C16.5202 0.209089 22.3537 0 27 0C31.6463 0 37.4798 0.20909 42.4432 0.436051C48.4808 0.712128 53.2879 5.51921 53.5639 11.5568C53.7909 16.5202 54 22.3537 54 27C54 31.6463 53.7909 37.4798 53.5639 42.4432C53.2879 48.4808 48.4808 53.2879 42.4432 53.5639C37.4798 53.7909 31.6463 54 27 54C22.3537 54 16.5202 53.7909 11.5568 53.5639C5.51921 53.2879 0.712128 48.4808 0.436051 42.4432C0.209089 37.4798 0 31.6463 0 27C0 22.3537 0.20909 16.5202 0.436051 11.5568Z" fill="url(#paint0_linear_86_165)"/>
</g>
<path d="M26.9998 28.3C26.8698 28.3 26.7398 28.27 26.6198 28.2L17.7899 23.09C17.4299 22.88 17.3098 22.42 17.5198 22.06C17.7298 21.7 18.1798 21.58 18.5498 21.79L26.9998 26.68L35.3998 21.82C35.7598 21.61 36.2198 21.74 36.4298 22.09C36.6398 22.45 36.5098 22.91 36.1598 23.12L27.3899 28.2C27.2599 28.26 27.1298 28.3 26.9998 28.3Z" fill="white"/>
<path d="M27 37.36C26.59 37.36 26.25 37.02 26.25 36.61V27.54C26.25 27.13 26.59 26.79 27 26.79C27.41 26.79 27.75 27.13 27.75 27.54V36.61C27.75 37.02 27.41 37.36 27 37.36Z" fill="white"/>
<path d="M27.0001 37.75C26.1201 37.75 25.2501 37.56 24.5601 37.18L19.2201 34.21C17.7701 33.41 16.6401 31.48 16.6401 29.82V24.17C16.6401 22.51 17.7701 20.59 19.2201 19.78L24.5601 16.82C25.9301 16.06 28.0701 16.06 29.4401 16.82L34.7801 19.79C36.2301 20.59 37.3601 22.52 37.3601 24.18V29.83C37.3601 31.49 36.2301 33.41 34.7801 34.22L29.4401 37.18C28.7501 37.56 27.8801 37.75 27.0001 37.75ZM27.0001 17.75C26.3701 17.75 25.7501 17.88 25.2901 18.13L19.9501 21.1C18.9901 21.64 18.1401 23.07 18.1401 24.18V29.83C18.1401 30.93 18.9901 32.37 19.9501 32.91L25.2901 35.88C26.2001 36.39 27.8001 36.39 28.7101 35.88L34.0501 32.91C35.0101 32.37 35.8601 30.94 35.8601 29.83V24.18C35.8601 23.08 35.0101 21.64 34.0501 21.1L28.7101 18.13C28.2501 17.88 27.6301 17.75 27.0001 17.75Z" fill="white"/>
<path d="M32.0002 28.99C31.5902 28.99 31.2502 28.65 31.2502 28.24V25.0201L22.1302 19.7601C21.7702 19.5501 21.6502 19.09 21.8602 18.74C22.0702 18.38 22.5202 18.26 22.8802 18.47L32.3702 23.9501C32.6002 24.0801 32.7502 24.33 32.7502 24.6V28.2601C32.7502 28.6501 32.4102 28.99 32.0002 28.99Z" fill="white"/>
<defs>
<filter id="filter0_d_86_165" x="0" y="0" width="56" height="56" filterUnits="userSpaceOnUse" color-interpolation-filters="sRGB">
<feFlood flood-opacity="0" result="BackgroundImageFix"/>
<feColorMatrix in="SourceAlpha" type="matrix" values="0 0 0 0 0 0 0 0 0 0 0 0 0 0 0 0 0 0 127 0" result="hardAlpha"/>
<feOffset dx="2" dy="2"/>
<feComposite in2="hardAlpha" operator="out"/>
<feColorMatrix type="matrix" values="0 0 0 0 0 0 0 0 0 0 0 0 0 0 0 0 0 0 0.06 0"/>
<feBlend mode="normal" in2="BackgroundImageFix" result="effect1_dropShadow_86_165"/>
<feBlend mode="normal" in="SourceGraphic" in2="effect1_dropShadow_86_165" result="shape"/>
</filter>
<linearGradient id="paint0_linear_86_165" x1="1.39214" y1="2.28966" x2="64.5806" y2="8.32612" gradientUnits="userSpaceOnUse">
<stop stop-color="#E65C00"/>
<stop offset="1" stop-color="#FF8C42"/>
</linearGradient>
</defs>
</svg>
