<svg width="56" height="56" viewBox="0 0 56 56" fill="none" xmlns="http://www.w3.org/2000/svg">
<g filter="url(#filter0_d_86_143)">
<path d="M0.436051 11.5568C0.712128 5.51921 5.51921 0.712128 11.5568 0.436051C16.5202 0.209089 22.3537 0 27 0C31.6463 0 37.4798 0.20909 42.4432 0.436051C48.4808 0.712128 53.2879 5.51921 53.5639 11.5568C53.7909 16.5202 54 22.3537 54 27C54 31.6463 53.7909 37.4798 53.5639 42.4432C53.2879 48.4808 48.4808 53.2879 42.4432 53.5639C37.4798 53.7909 31.6463 54 27 54C22.3537 54 16.5202 53.7909 11.5568 53.5639C5.51921 53.2879 0.712128 48.4808 0.436051 42.4432C0.209089 37.4798 0 31.6463 0 27C0 22.3537 0.20909 16.5202 0.436051 11.5568Z" fill="url(#paint0_linear_86_143)"/>
</g>
<path d="M32.1499 25C32.7022 25 33.1499 24.5523 33.1499 24C33.1499 23.4477 32.7022 23 32.1499 23C31.5976 23 31.1499 23.4477 31.1499 24C31.1499 24.5523 31.5976 25 32.1499 25Z" fill="white"/>
<path d="M32.1499 31C32.7022 31 33.1499 30.5523 33.1499 30C33.1499 29.4477 32.7022 29 32.1499 29C31.5976 29 31.1499 29.4477 31.1499 30C31.1499 30.5523 31.5976 31 32.1499 31Z" fill="white"/>
<path d="M34.75 28C35.3023 28 35.75 27.5523 35.75 27C35.75 26.4477 35.3023 26 34.75 26C34.1977 26 33.75 26.4477 33.75 27C33.75 27.5523 34.1977 28 34.75 28Z" fill="white"/>
<path d="M21.7999 25C22.3522 25 22.7999 24.5523 22.7999 24C22.7999 23.4477 22.3522 23 21.7999 23C21.2476 23 20.7999 23.4477 20.7999 24C20.7999 24.5523 21.2476 25 21.7999 25Z" fill="white"/>
<path d="M21.7999 31C22.3522 31 22.7999 30.5523 22.7999 30C22.7999 29.4477 22.3522 29 21.7999 29C21.2476 29 20.7999 29.4477 20.7999 30C20.7999 30.5523 21.2476 31 21.7999 31Z" fill="white"/>
<path d="M19.2 28C19.7522 28 20.2 27.5523 20.2 27C20.2 26.4477 19.7522 26 19.2 26C18.6477 26 18.2 26.4477 18.2 27C18.2 27.5523 18.6477 28 19.2 28Z" fill="white"/>
<path d="M30.8999 21.2C31.4522 21.2 31.8999 20.7522 31.8999 20.2C31.8999 19.6477 31.4522 19.2 30.8999 19.2C30.3476 19.2 29.8999 19.6477 29.8999 20.2C29.8999 20.7522 30.3476 21.2 30.8999 21.2Z" fill="white"/>
<path d="M23.1 21.2C23.6523 21.2 24.1 20.7522 24.1 20.2C24.1 19.6477 23.6523 19.2 23.1 19.2C22.5477 19.2 22.1 19.6477 22.1 20.2C22.1 20.7522 22.5477 21.2 23.1 21.2Z" fill="white"/>
<path d="M27.0499 22C27.6022 22 28.0499 21.5523 28.0499 21C28.0499 20.4477 27.6022 20 27.0499 20C26.4976 20 26.0499 20.4477 26.0499 21C26.0499 21.5523 26.4976 22 27.0499 22Z" fill="white"/>
<path d="M30.8999 35C31.4522 35 31.8999 34.5523 31.8999 34C31.8999 33.4477 31.4522 33 30.8999 33C30.3476 33 29.8999 33.4477 29.8999 34C29.8999 34.5523 30.3476 35 30.8999 35Z" fill="white"/>
<path d="M23.1 35C23.6523 35 24.1 34.5523 24.1 34C24.1 33.4477 23.6523 33 23.1 33C22.5477 33 22.1 33.4477 22.1 34C22.1 34.5523 22.5477 35 23.1 35Z" fill="white"/>
<path d="M27.0499 34.2C27.6022 34.2 28.0499 33.7522 28.0499 33.2C28.0499 32.6477 27.6022 32.2 27.0499 32.2C26.4976 32.2 26.0499 32.6477 26.0499 33.2C26.0499 33.7522 26.4976 34.2 27.0499 34.2Z" fill="white"/>
<path d="M28.75 25.25C29.4404 25.25 30 24.6904 30 24C30 23.3096 29.4404 22.75 28.75 22.75C28.0596 22.75 27.5 23.3096 27.5 24C27.5 24.6904 28.0596 25.25 28.75 25.25Z" fill="white"/>
<path d="M25.25 25.25C25.9404 25.25 26.5 24.6904 26.5 24C26.5 23.3096 25.9404 22.75 25.25 22.75C24.5596 22.75 24 23.3096 24 24C24 24.6904 24.5596 25.25 25.25 25.25Z" fill="white"/>
<path d="M30.5 28.25C31.1904 28.25 31.75 27.6904 31.75 27C31.75 26.3096 31.1904 25.75 30.5 25.75C29.8096 25.75 29.25 26.3096 29.25 27C29.25 27.6904 29.8096 28.25 30.5 28.25Z" fill="white"/>
<path d="M23.5 28.25C24.1904 28.25 24.75 27.6904 24.75 27C24.75 26.3096 24.1904 25.75 23.5 25.75C22.8096 25.75 22.25 26.3096 22.25 27C22.25 27.6904 22.8096 28.25 23.5 28.25Z" fill="white"/>
<path d="M25.25 31.25C25.9404 31.25 26.5 30.6904 26.5 30C26.5 29.3096 25.9404 28.75 25.25 28.75C24.5596 28.75 24 29.3096 24 30C24 30.6904 24.5596 31.25 25.25 31.25Z" fill="white"/>
<path d="M28.75 31.25C29.4404 31.25 30 30.6904 30 30C30 29.3096 29.4404 28.75 28.75 28.75C28.0596 28.75 27.5 29.3096 27.5 30C27.5 30.6904 28.0596 31.25 28.75 31.25Z" fill="white"/>
<path d="M27 18.3299C26.51 18.3299 26.12 17.9399 26.12 17.4499C26.12 16.9599 26.51 16.5699 27 16.5699C27.49 16.5699 27.88 16.9599 27.88 17.4499C27.88 17.9399 27.49 18.3299 27 18.3299Z" fill="white"/>
<path d="M32.25 18.6C31.83 18.6 31.49 18.26 31.49 17.85C31.49 17.44 31.83 17.1 32.24 17.1C32.65 17.1 33 17.44 33 17.85C33 18.26 32.67 18.6 32.25 18.6Z" fill="white"/>
<path d="M21.75 18.6C21.34 18.6 21 18.26 21 17.85C21 17.44 21.33 17.1 21.75 17.1H21.76C22.17 17.1 22.51 17.44 22.51 17.85C22.51 18.26 22.17 18.6 21.75 18.6Z" fill="white"/>
<path d="M27 37.38C26.51 37.38 26.12 36.99 26.12 36.5C26.12 36.01 26.51 35.62 27 35.62C27.49 35.62 27.88 36.01 27.88 36.5C27.88 36.99 27.49 37.38 27 37.38Z" fill="white"/>
<path d="M32.25 36.85C31.83 36.85 31.49 36.51 31.49 36.1C31.49 35.69 31.83 35.35 32.24 35.35C32.65 35.35 33 35.69 33 36.1C33 36.51 32.67 36.85 32.25 36.85Z" fill="white"/>
<path d="M21.75 36.85C21.34 36.85 21 36.51 21 36.1C21 35.69 21.33 35.35 21.75 35.35H21.76C22.17 35.35 22.51 35.69 22.51 36.1C22.51 36.51 22.17 36.85 21.75 36.85Z" fill="white"/>
<path d="M16.55 27.88C16.07 27.88 15.67 27.49 15.67 27.01V27C15.67 26.52 16.06 26.12 16.55 26.12C17.04 26.12 17.43 26.51 17.43 27C17.43 27.49 17.03 27.88 16.55 27.88Z" fill="white"/>
<path d="M18.75 32.75C18.34 32.75 18 32.42 18 32V31.99C18 31.58 18.34 31.24 18.75 31.24C19.16 31.24 19.5 31.58 19.5 31.99C19.5 32.4 19.16 32.75 18.75 32.75Z" fill="white"/>
<path d="M18.75 22.76C18.34 22.76 18 22.42 18 22.01C18 21.6 18.34 21.26 18.75 21.26C19.16 21.26 19.5 21.59 19.5 22V22.01C19.5 22.42 19.16 22.76 18.75 22.76Z" fill="white"/>
<path d="M37.5 27.88C37.02 27.88 36.62 27.49 36.62 27.01V27C36.62 26.52 37.01 26.12 37.5 26.12C37.99 26.12 38.38 26.51 38.38 27C38.38 27.49 37.98 27.88 37.5 27.88Z" fill="white"/>
<path d="M35.3 32.75C34.89 32.75 34.55 32.42 34.55 32V31.99C34.55 31.58 34.89 31.24 35.3 31.24C35.71 31.24 36.05 31.58 36.05 31.99C36.05 32.4 35.71 32.75 35.3 32.75Z" fill="white"/>
<path d="M35.3 22.76C34.89 22.76 34.55 22.42 34.55 22.01C34.55 21.6 34.89 21.26 35.3 21.26C35.71 21.26 36.05 21.59 36.05 22.01V22.02C36.05 22.42 35.71 22.76 35.3 22.76Z" fill="white"/>
<defs>
<filter id="filter0_d_86_143" x="0" y="0" width="56" height="56" filterUnits="userSpaceOnUse" color-interpolation-filters="sRGB">
<feFlood flood-opacity="0" result="BackgroundImageFix"/>
<feColorMatrix in="SourceAlpha" type="matrix" values="0 0 0 0 0 0 0 0 0 0 0 0 0 0 0 0 0 0 127 0" result="hardAlpha"/>
<feOffset dx="2" dy="2"/>
<feComposite in2="hardAlpha" operator="out"/>
<feColorMatrix type="matrix" values="0 0 0 0 0 0 0 0 0 0 0 0 0 0 0 0 0 0 0.06 0"/>
<feBlend mode="normal" in2="BackgroundImageFix" result="effect1_dropShadow_86_143"/>
<feBlend mode="normal" in="SourceGraphic" in2="effect1_dropShadow_86_143" result="shape"/>
</filter>
<linearGradient id="paint0_linear_86_143" x1="1.39214" y1="2.28966" x2="64.5806" y2="8.32612" gradientUnits="userSpaceOnUse">
<stop stop-color="#E65C00"/>
<stop offset="1" stop-color="#FF8C42"/>
</linearGradient>
</defs>
</svg>
