<svg width="1390" height="107" viewBox="0 0 1390 107" fill="none" xmlns="http://www.w3.org/2000/svg">
<path d="M41.7173 108.187C32.7249 108.187 25.1231 106.75 18.9119 103.876C12.7933 101.002 8.11171 97.0624 4.86702 92.0563C1.62234 86.9575 3.65193e-06 81.2098 3.65193e-06 74.8132H19.329C19.329 77.5016 20.0707 80.1437 21.554 82.7395C23.0372 85.2425 25.4012 87.282 28.6459 88.858C31.9833 90.434 36.3404 91.222 41.7173 91.222C46.538 91.222 50.5707 90.5267 53.8154 89.1361C57.06 87.7455 59.4704 85.9378 61.0464 83.7129C62.6223 81.3952 63.4103 78.7995 63.4103 75.9256C63.4103 72.3101 61.8807 69.4363 58.8214 67.304C55.7622 65.0791 51.0342 63.6885 44.6375 63.1323L35.7378 62.437C26.0038 61.6027 18.2166 58.5898 12.3761 53.3983C6.62842 48.1141 3.75456 41.1612 3.75456 32.5396C3.75456 26.0502 5.2842 20.4879 8.34347 15.8527C11.4027 11.1247 15.6672 7.50921 21.1368 5.00617C26.6991 2.41043 33.1885 1.11255 40.6049 1.11255C48.2994 1.11255 54.9278 2.45678 60.4901 5.14523C66.0524 7.83368 70.3632 11.6346 73.4225 16.548C76.4818 21.3686 78.0114 27.07 78.0114 33.6521H58.6824C58.6824 30.8709 57.9871 28.3215 56.5965 26.0039C55.2986 23.5936 53.3055 21.6931 50.617 20.3025C48.0213 18.8192 44.6839 18.0776 40.6049 18.0776C36.7112 18.0776 33.4666 18.7265 30.8708 20.0244C28.2751 21.3223 26.3283 23.0837 25.0304 25.3086C23.7325 27.5335 23.0836 29.9439 23.0836 32.5396C23.0836 35.6916 24.2424 38.4727 26.56 40.8831C28.8777 43.2007 32.5395 44.5449 37.5456 44.9157L46.4453 45.7501C53.6763 46.3063 60.0266 47.836 65.4962 50.339C70.9658 52.842 75.1839 56.2258 78.1505 60.4902C81.2097 64.7546 82.7394 69.8998 82.7394 75.9256C82.7394 82.3223 81.0707 87.9773 77.7333 92.8907C74.3959 97.7113 69.6216 101.466 63.4103 104.154C57.2918 106.843 50.0608 108.187 41.7173 108.187ZM145.013 105.545V83.1566H141.815V58.2653C141.815 53.9081 140.749 50.6635 138.617 48.5312C136.484 46.399 133.193 45.3329 128.744 45.3329C126.426 45.3329 123.645 45.3793 120.4 45.472C117.155 45.5647 113.864 45.7037 110.527 45.8891C107.282 45.9819 104.362 46.1209 101.766 46.3063V29.8975C103.899 29.7121 106.309 29.5267 108.997 29.3413C111.686 29.1559 114.421 29.0632 117.202 29.0632C120.076 28.9705 122.764 28.9241 125.267 28.9241C133.054 28.9241 139.497 29.9439 144.596 31.9834C149.788 34.0229 153.681 37.2212 156.277 41.5784C158.965 45.9355 160.31 51.6369 160.31 58.6825V105.545H145.013ZM120.678 107.492C115.209 107.492 110.388 106.518 106.216 104.572C102.137 102.625 98.9389 99.8436 96.6212 96.2281C94.3963 92.6126 93.2838 88.2554 93.2838 83.1566C93.2838 77.5943 94.6281 73.0518 97.3165 69.529C100.098 66.0062 103.945 63.3641 108.858 61.6027C113.864 59.8413 119.705 58.9606 126.38 58.9606H143.901V70.5024H126.101C121.652 70.5024 118.222 71.6148 115.811 73.8398C113.494 75.972 112.335 78.7531 112.335 82.1832C112.335 85.6133 113.494 88.3945 115.811 90.5267C118.222 92.6589 121.652 93.725 126.101 93.725C128.79 93.725 131.247 93.2615 133.472 92.3344C135.789 91.3147 137.69 89.646 139.173 87.3284C140.749 84.918 141.63 81.6733 141.815 77.5943L146.543 83.0176C146.079 88.3018 144.782 92.7516 142.649 96.3671C140.61 99.9826 137.736 102.764 134.028 104.711C130.412 106.565 125.962 107.492 120.678 107.492ZM195.221 105.545L171.581 30.0366H191.466L214.133 105.545H195.221ZM200.922 105.545V89.6923H221.364V105.545H200.922ZM208.57 105.545L228.038 30.0366H246.672L226.231 105.545H208.57ZM264.887 105.545V30.0366H284.216V105.545H264.887ZM254.318 44.4986V30.0366H284.216V44.4986H254.318ZM271.978 20.9978C268.178 20.9978 265.35 20.0244 263.496 18.0776C261.735 16.0381 260.854 13.535 260.854 10.5685C260.854 7.41651 261.735 4.86712 263.496 2.92031C265.35 0.973494 268.178 8.90257e-05 271.978 8.90257e-05C275.779 8.90257e-05 278.561 0.973494 280.322 2.92031C282.083 4.86712 282.964 7.41651 282.964 10.5685C282.964 13.535 282.083 16.0381 280.322 18.0776C278.561 20.0244 275.779 20.9978 271.978 20.9978ZM339.31 106.518C332.357 106.518 326.609 105.638 322.066 103.876C317.617 102.022 314.279 98.9629 312.054 94.6984C309.829 90.3413 308.717 84.5009 308.717 77.1771L308.856 8.76073H326.933L326.794 78.4287C326.794 82.1369 327.768 85.0107 329.715 87.0502C331.754 88.9971 334.628 89.9705 338.336 89.9705H350.156V106.518H339.31ZM296.758 44.2205V30.0366H350.156V44.2205H296.758ZM392.105 107.909C383.391 107.909 376.623 105.035 371.802 99.2873C367.074 93.5396 364.71 85.0107 364.71 73.7007V29.8975H384.039V75.3694C384.039 80.0046 385.337 83.7129 387.933 86.494C390.529 89.1825 394.052 90.5267 398.501 90.5267C402.951 90.5267 406.567 89.0898 409.348 86.2159C412.222 83.342 413.659 79.4484 413.659 74.535V29.8975H432.988V105.545H417.691V73.4226H419.221C419.221 81.0244 418.248 87.3747 416.301 92.4735C414.354 97.5723 411.434 101.42 407.54 104.015C403.647 106.611 398.78 107.909 392.939 107.909H392.105ZM455.191 105.545V30.0366H470.488V62.0198H470.071C470.071 51.1733 472.388 42.9689 477.023 37.4066C481.659 31.8443 488.473 29.0632 497.465 29.0632H500.246V45.8891H494.962C488.473 45.8891 483.42 47.6505 479.805 51.1733C476.282 54.6034 474.52 59.6095 474.52 66.1916V105.545H455.191ZM544.718 105.545V4.03277H564.465V105.545H544.718ZM561.684 105.545V88.1627H605.487V105.545H561.684ZM623.666 105.545V30.0366H642.995V105.545H623.666ZM613.098 44.4986V30.0366H642.995V44.4986H613.098ZM630.758 20.9978C626.957 20.9978 624.13 20.0244 622.276 18.0776C620.514 16.0381 619.634 13.535 619.634 10.5685C619.634 7.41651 620.514 4.86712 622.276 2.92031C624.13 0.973494 626.957 8.90257e-05 630.758 8.90257e-05C634.559 8.90257e-05 637.34 0.973494 639.102 2.92031C640.863 4.86712 641.744 7.41651 641.744 10.5685C641.744 13.535 640.863 16.0381 639.102 18.0776C637.34 20.0244 634.559 20.9978 630.758 20.9978ZM667.08 105.545V28.2288C667.08 19.6072 669.444 13.2569 674.171 9.17791C678.992 5.00617 686.084 2.92031 695.447 2.92031H704.903V17.7995H694.057C691.183 17.7995 688.958 18.5875 687.382 20.1635C685.899 21.6467 685.157 23.779 685.157 26.5601V105.545H667.08ZM657.624 45.472V31.2881H706.155V45.472H657.624ZM751.617 108.187C745.127 108.187 739.426 107.075 734.513 104.85C729.692 102.625 725.659 99.6581 722.415 95.9499C719.263 92.149 716.852 87.9309 715.184 83.2957C713.608 78.6604 712.82 73.9325 712.82 69.1118V66.4697C712.82 61.4636 713.608 56.6429 715.184 52.0077C716.852 47.2797 719.263 43.108 722.415 39.4925C725.659 35.7843 729.646 32.8641 734.374 30.7319C739.102 28.5069 744.571 27.3945 750.782 27.3945C758.941 27.3945 765.754 29.2022 771.224 32.8177C776.786 36.3405 780.958 41.0221 783.739 46.8626C786.52 52.6103 787.911 58.8215 787.911 65.4963V72.4492H721.024V60.6293H775.813L769.833 66.4697C769.833 61.649 769.138 57.5236 767.748 54.0936C766.357 50.6635 764.225 48.0214 761.351 46.1673C758.57 44.3132 755.047 43.3861 750.782 43.3861C746.518 43.3861 742.903 44.3595 739.936 46.3063C736.969 48.2531 734.698 51.0806 733.122 54.7888C731.639 58.4043 730.897 62.7615 730.897 67.8603C730.897 72.5882 731.639 76.8063 733.122 80.5145C734.605 84.13 736.877 87.0039 739.936 89.1361C742.995 91.1756 746.889 92.1954 751.617 92.1954C756.345 92.1954 760.192 91.2683 763.159 89.4142C766.125 87.4674 768.026 85.1034 768.86 82.3223H786.659C785.547 87.5138 783.415 92.0563 780.263 95.9499C777.111 99.8436 773.078 102.856 768.165 104.989C763.344 107.121 757.828 108.187 751.617 108.187ZM870.224 108.187C861.232 108.187 853.63 106.75 847.419 103.876C841.3 101.002 836.619 97.0624 833.374 92.0563C830.129 86.9575 828.507 81.2098 828.507 74.8132H847.836C847.836 77.5016 848.578 80.1437 850.061 82.7395C851.544 85.2425 853.908 87.282 857.153 88.858C860.49 90.434 864.848 91.222 870.224 91.222C875.045 91.222 879.078 90.5267 882.322 89.1361C885.567 87.7455 887.977 85.9378 889.553 83.7129C891.129 81.3952 891.917 78.7995 891.917 75.9256C891.917 72.3101 890.388 69.4363 887.329 67.304C884.269 65.0791 879.541 63.6885 873.145 63.1323L864.245 62.437C854.511 61.6027 846.724 58.5898 840.883 53.3983C835.136 48.1141 832.262 41.1612 832.262 32.5396C832.262 26.0502 833.791 20.4879 836.851 15.8527C839.91 11.1247 844.174 7.50921 849.644 5.00617C855.206 2.41043 861.696 1.11255 869.112 1.11255C876.806 1.11255 883.435 2.45678 888.997 5.14523C894.56 7.83368 898.87 11.6346 901.93 16.548C904.989 21.3686 906.518 27.07 906.518 33.6521H887.189C887.189 30.8709 886.494 28.3215 885.104 26.0039C883.806 23.5936 881.813 21.6931 879.124 20.3025C876.528 18.8192 873.191 18.0776 869.112 18.0776C865.218 18.0776 861.974 18.7265 859.378 20.0244C856.782 21.3223 854.835 23.0837 853.537 25.3086C852.24 27.5335 851.591 29.9439 851.591 32.5396C851.591 35.6916 852.749 38.4727 855.067 40.8831C857.385 43.2007 861.047 44.5449 866.053 44.9157L874.952 45.7501C882.183 46.3063 888.534 47.836 894.003 50.339C899.473 52.842 903.691 56.2258 906.658 60.4902C909.717 64.7546 911.246 69.8998 911.246 75.9256C911.246 82.3223 909.578 87.9773 906.24 92.8907C902.903 97.7113 898.129 101.466 891.917 104.154C885.799 106.843 878.568 108.187 870.224 108.187ZM961.283 108.187C954.701 108.187 949 107.075 944.179 104.85C939.451 102.625 935.465 99.6581 932.22 95.9499C929.068 92.2417 926.704 88.07 925.128 83.4347C923.552 78.7995 922.764 74.0715 922.764 69.2509V66.6088C922.764 61.51 923.552 56.6429 925.128 52.0077C926.797 47.2797 929.254 43.108 932.498 39.4925C935.743 35.7843 939.729 32.8641 944.457 30.7319C949.278 28.5069 954.84 27.3945 961.144 27.3945C967.726 27.3945 973.613 28.6923 978.805 31.2881C983.996 33.7911 988.122 37.3139 991.181 41.8565C994.333 46.399 996.094 51.6832 996.465 57.7091H977.692C977.229 53.8154 975.56 50.5708 972.686 47.975C969.905 45.3793 966.058 44.0814 961.144 44.0814C956.88 44.0814 953.311 45.1012 950.437 47.1407C947.656 49.1802 945.57 52.0077 944.179 55.6232C942.789 59.146 942.093 63.225 942.093 67.8603C942.093 72.3101 942.742 76.3428 944.04 79.9583C945.431 83.5738 947.517 86.4013 950.298 88.4408C953.172 90.4803 956.834 91.5001 961.283 91.5001C964.621 91.5001 967.495 90.8975 969.905 89.6923C972.315 88.4872 974.216 86.8185 975.606 84.6863C977.09 82.554 978.017 80.1437 978.387 77.4553H997.16C996.789 83.5738 994.982 88.9507 991.737 93.586C988.585 98.1285 984.367 101.698 979.083 104.293C973.891 106.889 967.958 108.187 961.283 108.187ZM1016.26 105.545V30.0366H1035.59V105.545H1016.26ZM1005.69 44.4986V30.0366H1035.59V44.4986H1005.69ZM1023.35 20.9978C1019.55 20.9978 1016.72 20.0244 1014.87 18.0776C1013.11 16.0381 1012.23 13.535 1012.23 10.5685C1012.23 7.41651 1013.11 4.86712 1014.87 2.92031C1016.72 0.973494 1019.55 8.90257e-05 1023.35 8.90257e-05C1027.15 8.90257e-05 1029.93 0.973494 1031.7 2.92031C1033.46 4.86712 1034.34 7.41651 1034.34 10.5685C1034.34 13.535 1033.46 16.0381 1031.7 18.0776C1029.93 20.0244 1027.15 20.9978 1023.35 20.9978ZM1091.66 108.187C1085.17 108.187 1079.47 107.075 1074.55 104.85C1069.73 102.625 1065.7 99.6581 1062.45 95.9499C1059.3 92.149 1056.89 87.9309 1055.22 83.2957C1053.65 78.6604 1052.86 73.9325 1052.86 69.1118V66.4697C1052.86 61.4636 1053.65 56.6429 1055.22 52.0077C1056.89 47.2797 1059.3 43.108 1062.45 39.4925C1065.7 35.7843 1069.69 32.8641 1074.41 30.7319C1079.14 28.5069 1084.61 27.3945 1090.82 27.3945C1098.98 27.3945 1105.79 29.2022 1111.26 32.8177C1116.83 36.3405 1121 41.0221 1123.78 46.8626C1126.56 52.6103 1127.95 58.8215 1127.95 65.4963V72.4492H1061.06V60.6293H1115.85L1109.87 66.4697C1109.87 61.649 1109.18 57.5236 1107.79 54.0936C1106.4 50.6635 1104.26 48.0214 1101.39 46.1673C1098.61 44.3132 1095.09 43.3861 1090.82 43.3861C1086.56 43.3861 1082.94 44.3595 1079.98 46.3063C1077.01 48.2531 1074.74 51.0806 1073.16 54.7888C1071.68 58.4043 1070.94 62.7615 1070.94 67.8603C1070.94 72.5882 1071.68 76.8063 1073.16 80.5145C1074.65 84.13 1076.92 87.0039 1079.98 89.1361C1083.03 91.1756 1086.93 92.1954 1091.66 92.1954C1096.38 92.1954 1100.23 91.2683 1103.2 89.4142C1106.16 87.4674 1108.07 85.1034 1108.9 82.3223H1126.7C1125.59 87.5138 1123.45 92.0563 1120.3 95.9499C1117.15 99.8436 1113.12 102.856 1108.2 104.989C1103.38 107.121 1097.87 108.187 1091.66 108.187ZM1144.1 105.545V30.0366H1159.39V62.437H1158C1158 54.7425 1159.02 48.3458 1161.06 43.2471C1163.1 38.0556 1166.12 34.1619 1170.1 31.5662C1174.18 28.9705 1179.23 27.6726 1185.26 27.6726H1186.09C1195.09 27.6726 1201.9 30.5928 1206.53 36.4332C1211.17 42.1809 1213.49 50.8025 1213.49 62.298V105.545H1194.16V60.6293C1194.16 55.994 1192.81 52.2395 1190.13 49.3656C1187.53 46.4917 1183.91 45.0548 1179.28 45.0548C1174.55 45.0548 1170.7 46.5381 1167.74 49.5046C1164.86 52.3785 1163.43 56.2721 1163.43 61.1855V105.545H1144.1ZM1267.78 108.187C1261.2 108.187 1255.5 107.075 1250.68 104.85C1245.95 102.625 1241.96 99.6581 1238.72 95.9499C1235.57 92.2417 1233.2 88.07 1231.63 83.4347C1230.05 78.7995 1229.26 74.0715 1229.26 69.2509V66.6088C1229.26 61.51 1230.05 56.6429 1231.63 52.0077C1233.29 47.2797 1235.75 43.108 1239 39.4925C1242.24 35.7843 1246.23 32.8641 1250.95 30.7319C1255.78 28.5069 1261.34 27.3945 1267.64 27.3945C1274.22 27.3945 1280.11 28.6923 1285.3 31.2881C1290.49 33.7911 1294.62 37.3139 1297.68 41.8565C1300.83 46.399 1302.59 51.6832 1302.96 57.7091H1284.19C1283.73 53.8154 1282.06 50.5708 1279.18 47.975C1276.4 45.3793 1272.55 44.0814 1267.64 44.0814C1263.38 44.0814 1259.81 45.1012 1256.93 47.1407C1254.15 49.1802 1252.07 52.0077 1250.68 55.6232C1249.29 59.146 1248.59 63.225 1248.59 67.8603C1248.59 72.3101 1249.24 76.3428 1250.54 79.9583C1251.93 83.5738 1254.01 86.4013 1256.8 88.4408C1259.67 90.4803 1263.33 91.5001 1267.78 91.5001C1271.12 91.5001 1273.99 90.8975 1276.4 89.6923C1278.81 88.4872 1280.71 86.8185 1282.1 84.6863C1283.59 82.554 1284.51 80.1437 1284.88 77.4553H1303.66C1303.29 83.5738 1301.48 88.9507 1298.23 93.586C1295.08 98.1285 1290.86 101.698 1285.58 104.293C1280.39 106.889 1274.46 108.187 1267.78 108.187ZM1352.93 108.187C1346.44 108.187 1340.74 107.075 1335.83 104.85C1331.01 102.625 1326.98 99.6581 1323.73 95.9499C1320.58 92.149 1318.17 87.9309 1316.5 83.2957C1314.92 78.6604 1314.14 73.9325 1314.14 69.1118V66.4697C1314.14 61.4636 1314.92 56.6429 1316.5 52.0077C1318.17 47.2797 1320.58 43.108 1323.73 39.4925C1326.98 35.7843 1330.96 32.8641 1335.69 30.7319C1340.42 28.5069 1345.89 27.3945 1352.1 27.3945C1360.26 27.3945 1367.07 29.2022 1372.54 32.8177C1378.1 36.3405 1382.27 41.0221 1385.06 46.8626C1387.84 52.6103 1389.23 58.8215 1389.23 65.4963V72.4492H1322.34V60.6293H1377.13L1371.15 66.4697C1371.15 61.649 1370.45 57.5236 1369.06 54.0936C1367.67 50.6635 1365.54 48.0214 1362.67 46.1673C1359.89 44.3132 1356.36 43.3861 1352.1 43.3861C1347.83 43.3861 1344.22 44.3595 1341.25 46.3063C1338.29 48.2531 1336.01 51.0806 1334.44 54.7888C1332.95 58.4043 1332.21 62.7615 1332.21 67.8603C1332.21 72.5882 1332.95 76.8063 1334.44 80.5145C1335.92 84.13 1338.19 87.0039 1341.25 89.1361C1344.31 91.1756 1348.2 92.1954 1352.93 92.1954C1357.66 92.1954 1361.51 91.2683 1364.47 89.4142C1367.44 87.4674 1369.34 85.1034 1370.18 82.3223H1387.98C1386.86 87.5138 1384.73 92.0563 1381.58 95.9499C1378.43 99.8436 1374.39 102.856 1369.48 104.989C1364.66 107.121 1359.14 108.187 1352.93 108.187Z" fill="url(#paint0_linear_38_560)"/>
<defs>
<linearGradient id="paint0_linear_38_560" x1="694.577" y1="3.54492" x2="694.577" y2="105.545" gradientUnits="userSpaceOnUse">
<stop stop-color="white"/>
<stop offset="1" stop-color="white" stop-opacity="0"/>
</linearGradient>
</defs>
</svg>
