<svg width="156" height="48" viewBox="0 0 156 48" fill="none" xmlns="http://www.w3.org/2000/svg">
<g filter="url(#filter0_d_15_79)">
<circle cx="23" cy="23" r="23" fill="url(#paint0_linear_15_79)"/>
<path d="M64.1185 23.5111C62.379 23.5111 60.9086 23.2331 59.7072 22.6772C58.5237 22.1213 57.6181 21.3592 56.9905 20.3909C56.3628 19.4046 56.049 18.2928 56.049 17.0555H59.7879C59.7879 17.5755 59.9313 18.0866 60.2182 18.5887C60.5051 19.0729 60.9624 19.4674 61.59 19.7722C62.2356 20.0771 63.0784 20.2295 64.1185 20.2295C65.0509 20.2295 65.831 20.095 66.4586 19.826C67.0862 19.557 67.5525 19.2074 67.8573 18.777C68.1621 18.3287 68.3146 17.8266 68.3146 17.2707C68.3146 16.5714 68.0187 16.0155 67.4269 15.603C66.8352 15.1726 65.9206 14.9037 64.6833 14.7961L62.9618 14.6616C61.079 14.5002 59.5727 13.9174 58.443 12.9132C57.3312 11.8911 56.7753 10.5462 56.7753 8.87849C56.7753 7.62324 57.0712 6.54732 57.6629 5.65072C58.2547 4.73618 59.0795 4.03683 60.1375 3.55266C61.2135 3.05056 62.4687 2.79952 63.9033 2.79952C65.3916 2.79952 66.6738 3.05953 67.7497 3.57956C68.8256 4.09959 69.6595 4.83481 70.2512 5.78521C70.843 6.71768 71.1389 7.8205 71.1389 9.09367H67.4C67.4 8.55571 67.2655 8.06258 66.9966 7.61428C66.7455 7.14804 66.36 6.78044 65.8399 6.51146C65.3378 6.22454 64.6923 6.08109 63.9033 6.08109C63.1501 6.08109 62.5225 6.20661 62.0204 6.45766C61.5183 6.70871 61.1417 7.04942 60.8907 7.47979C60.6396 7.91016 60.5141 8.37639 60.5141 8.87849C60.5141 9.48818 60.7383 10.0261 61.1866 10.4924C61.6349 10.9407 62.3432 11.2007 63.3115 11.2724L65.033 11.4338C66.4317 11.5414 67.66 11.8373 68.718 12.3214C69.776 12.8056 70.5919 13.4601 71.1658 14.285C71.7575 15.1099 72.0534 16.1051 72.0534 17.2707C72.0534 18.508 71.7306 19.6019 71.0851 20.5523C70.4395 21.4847 69.516 22.211 68.3146 22.731C67.131 23.251 65.7323 23.5111 64.1185 23.5111ZM84.0991 23V18.6694H83.4805V13.8546C83.4805 13.0118 83.2743 12.3842 82.8618 11.9718C82.4494 11.5593 81.8128 11.3531 80.9521 11.3531C80.5038 11.3531 79.9658 11.3621 79.3382 11.38C78.7105 11.3979 78.074 11.4248 77.4284 11.4607C76.8008 11.4786 76.2359 11.5055 75.7338 11.5414V8.36743C76.1463 8.33156 76.6125 8.2957 77.1325 8.25983C77.6526 8.22397 78.1815 8.20604 78.7195 8.20604C79.2754 8.18811 79.7954 8.17914 80.2796 8.17914C81.7859 8.17914 83.0322 8.37639 84.0184 8.7709C85.0226 9.1654 85.7758 9.78406 86.2779 10.6269C86.7979 11.4697 87.0579 12.5725 87.0579 13.9353V23H84.0991ZM79.392 23.3766C78.334 23.3766 77.4015 23.1883 76.5946 22.8117C75.8055 22.4351 75.1869 21.8972 74.7386 21.1978C74.3082 20.4985 74.093 19.6557 74.093 18.6694C74.093 17.5935 74.3531 16.7148 74.8731 16.0334C75.411 15.352 76.1552 14.8409 77.1056 14.5002C78.074 14.1595 79.2037 13.9891 80.4948 13.9891H83.8839V16.2217H80.441C79.5803 16.2217 78.9168 16.4369 78.4505 16.8672C78.0022 17.2797 77.7781 17.8176 77.7781 18.4811C77.7781 19.1446 78.0022 19.6826 78.4505 20.095C78.9168 20.5074 79.5803 20.7137 80.441 20.7137C80.961 20.7137 81.4362 20.624 81.8666 20.4447C82.3149 20.2474 82.6825 19.9246 82.9694 19.4763C83.2743 19.0101 83.4446 18.3825 83.4805 17.5935L84.395 18.6425C84.3054 19.6646 84.0543 20.5254 83.6419 21.2247C83.2474 21.9241 82.6915 22.462 81.9742 22.8386C81.2748 23.1973 80.4141 23.3766 79.392 23.3766ZM93.8108 23L89.2381 8.39432H93.0846L97.469 23H93.8108ZM94.9136 23V19.9336H98.8677V23H94.9136ZM96.393 23L100.159 8.39432H103.763L99.8091 23H96.393ZM107.286 23V8.39432H111.025V23H107.286ZM105.242 11.1917V8.39432H111.025V11.1917H105.242ZM108.658 6.64595C107.923 6.64595 107.376 6.45766 107.017 6.08109C106.677 5.68658 106.506 5.20241 106.506 4.62859C106.506 4.0189 106.677 3.52577 107.017 3.14919C107.376 2.77262 107.923 2.58433 108.658 2.58433C109.393 2.58433 109.931 2.77262 110.272 3.14919C110.613 3.52577 110.783 4.0189 110.783 4.62859C110.783 5.20241 110.613 5.68658 110.272 6.08109C109.931 6.45766 109.393 6.64595 108.658 6.64595ZM121.682 23.1883C120.337 23.1883 119.225 23.0179 118.347 22.6772C117.486 22.3186 116.84 21.7268 116.41 20.9019C115.98 20.0591 115.765 18.9294 115.765 17.5128L115.791 4.27891H119.288L119.261 17.7549C119.261 18.4722 119.45 19.028 119.826 19.4226C120.221 19.7991 120.777 19.9874 121.494 19.9874H123.78V23.1883H121.682ZM113.451 11.1379V8.39432H123.78V11.1379H113.451ZM131.894 23.4573C130.209 23.4573 128.9 22.9014 127.967 21.7896C127.053 20.6778 126.595 19.028 126.595 16.8403V8.36743H130.334V17.1631C130.334 18.0597 130.585 18.777 131.087 19.315C131.59 19.835 132.271 20.095 133.132 20.095C133.992 20.095 134.692 19.8171 135.23 19.2612C135.786 18.7053 136.064 17.9521 136.064 17.0017V8.36743H139.802V23H136.844V16.7865H137.139C137.139 18.257 136.951 19.4853 136.575 20.4716C136.198 21.4578 135.633 22.202 134.88 22.7041C134.127 23.2062 133.185 23.4573 132.056 23.4573H131.894ZM144.097 23V8.39432H147.056V14.5809H146.975C146.975 12.4828 147.424 10.8958 148.32 9.81992C149.217 8.744 150.535 8.20604 152.274 8.20604H152.812V11.4607H151.79C150.535 11.4607 149.558 11.8014 148.858 12.4828C148.177 13.1463 147.836 14.1147 147.836 15.3878V23H144.097Z" fill="white"/>
<path d="M56.696 43V31.32H58.264V43H56.696ZM57.944 43V41.592H63.288V43H57.944ZM65.5911 43V34.456H67.1271V43H65.5911ZM64.2791 35.672V34.456H67.1271V35.672H64.2791ZM66.0231 33.08C65.6818 33.08 65.4258 32.9893 65.2551 32.808C65.0951 32.6267 65.0151 32.3973 65.0151 32.12C65.0151 31.8427 65.0951 31.6133 65.2551 31.432C65.4258 31.2507 65.6818 31.16 66.0231 31.16C66.3645 31.16 66.6151 31.2507 66.7751 31.432C66.9458 31.6133 67.0311 31.8427 67.0311 32.12C67.0311 32.3973 66.9458 32.6267 66.7751 32.808C66.6151 32.9893 66.3645 33.08 66.0231 33.08ZM70.321 43V34.024C70.321 33.0747 70.5717 32.376 71.073 31.928C71.5743 31.48 72.3103 31.256 73.281 31.256H74.337V32.536H73.025C72.6303 32.536 72.3263 32.648 72.113 32.872C71.8997 33.0853 71.793 33.384 71.793 33.768V43H70.321ZM69.137 35.704V34.552H74.497V35.704H69.137ZM79.729 43.288C78.9823 43.288 78.337 43.16 77.793 42.904C77.249 42.648 76.8063 42.312 76.465 41.896C76.1237 41.4693 75.8677 40.9947 75.697 40.472C75.537 39.9493 75.457 39.416 75.457 38.872V38.584C75.457 38.0293 75.537 37.4907 75.697 36.968C75.8677 36.4453 76.1237 35.976 76.465 35.56C76.8063 35.1333 77.2383 34.7973 77.761 34.552C78.2943 34.296 78.9183 34.168 79.633 34.168C80.561 34.168 81.3237 34.3707 81.921 34.776C82.529 35.1707 82.977 35.6827 83.265 36.312C83.5637 36.9413 83.713 37.6133 83.713 38.328V39.016H76.129V37.864H82.593L82.241 38.488C82.241 37.88 82.145 37.3573 81.953 36.92C81.761 36.472 81.473 36.1253 81.089 35.88C80.705 35.6347 80.2197 35.512 79.633 35.512C79.025 35.512 78.5183 35.6507 78.113 35.928C77.7183 36.2053 77.4197 36.584 77.217 37.064C77.025 37.544 76.929 38.0987 76.929 38.728C76.929 39.336 77.025 39.8853 77.217 40.376C77.4197 40.856 77.729 41.24 78.145 41.528C78.561 41.8053 79.089 41.944 79.729 41.944C80.401 41.944 80.945 41.7947 81.361 41.496C81.7877 41.1973 82.0437 40.8507 82.129 40.456H83.569C83.4517 41.0427 83.217 41.5493 82.865 41.976C82.513 42.4027 82.0703 42.728 81.537 42.952C81.0037 43.176 80.401 43.288 79.729 43.288ZM93.5505 43.288C92.5798 43.288 91.7532 43.128 91.0705 42.808C90.3878 42.488 89.8652 42.0453 89.5025 41.48C89.1398 40.9147 88.9585 40.2747 88.9585 39.56H90.5265C90.5265 39.912 90.6172 40.264 90.7985 40.616C90.9905 40.968 91.3052 41.2613 91.7425 41.496C92.1905 41.7307 92.7932 41.848 93.5505 41.848C94.2545 41.848 94.8305 41.7467 95.2785 41.544C95.7265 41.3307 96.0572 41.0587 96.2705 40.728C96.4838 40.3867 96.5905 40.0187 96.5905 39.624C96.5905 39.144 96.3825 38.7493 95.9665 38.44C95.5505 38.12 94.9425 37.9227 94.1425 37.848L92.8465 37.736C91.8118 37.6507 90.9852 37.3307 90.3665 36.776C89.7478 36.2213 89.4385 35.4907 89.4385 34.584C89.4385 33.8693 89.6092 33.2453 89.9505 32.712C90.3025 32.1787 90.7878 31.7627 91.4065 31.464C92.0252 31.1547 92.7452 31 93.5665 31C94.3772 31 95.0918 31.1493 95.7105 31.448C96.3292 31.7467 96.8092 32.168 97.1505 32.712C97.5025 33.2453 97.6785 33.8853 97.6785 34.632H96.1105C96.1105 34.2587 96.0198 33.9067 95.8385 33.576C95.6678 33.2453 95.3958 32.9733 95.0225 32.76C94.6492 32.5467 94.1638 32.44 93.5665 32.44C92.9905 32.44 92.5105 32.5413 92.1265 32.744C91.7532 32.9467 91.4705 33.2133 91.2785 33.544C91.0972 33.864 91.0065 34.2107 91.0065 34.584C91.0065 35.0107 91.1718 35.3893 91.5025 35.72C91.8332 36.0507 92.3238 36.2427 92.9745 36.296L94.2705 36.408C95.0705 36.472 95.7585 36.6427 96.3345 36.92C96.9212 37.1867 97.3692 37.5493 97.6785 38.008C97.9985 38.456 98.1585 38.9947 98.1585 39.624C98.1585 40.3387 97.9665 40.9733 97.5825 41.528C97.1985 42.0827 96.6598 42.5147 95.9665 42.824C95.2732 43.1333 94.4678 43.288 93.5505 43.288ZM104.23 43.288C103.494 43.288 102.854 43.16 102.31 42.904C101.776 42.648 101.334 42.3067 100.982 41.88C100.63 41.4427 100.363 40.9627 100.182 40.44C100.011 39.9173 99.9258 39.3947 99.9258 38.872V38.584C99.9258 38.04 100.011 37.5067 100.182 36.984C100.363 36.4613 100.63 35.992 100.982 35.576C101.344 35.1493 101.792 34.808 102.326 34.552C102.859 34.296 103.483 34.168 104.198 34.168C104.912 34.168 105.552 34.3013 106.118 34.568C106.694 34.8347 107.152 35.2133 107.494 35.704C107.846 36.184 108.043 36.7547 108.086 37.416H106.614C106.539 36.8827 106.294 36.44 105.878 36.088C105.462 35.7253 104.902 35.544 104.198 35.544C103.59 35.544 103.083 35.6827 102.678 35.96C102.272 36.2373 101.968 36.616 101.766 37.096C101.563 37.576 101.462 38.12 101.462 38.728C101.462 39.3147 101.563 39.8533 101.766 40.344C101.968 40.824 102.272 41.208 102.678 41.496C103.094 41.7733 103.611 41.912 104.23 41.912C104.71 41.912 105.126 41.8267 105.478 41.656C105.83 41.4853 106.112 41.256 106.326 40.968C106.539 40.68 106.667 40.3547 106.71 39.992H108.182C108.15 40.664 107.952 41.2453 107.59 41.736C107.238 42.2267 106.768 42.6107 106.182 42.888C105.606 43.1547 104.955 43.288 104.23 43.288ZM110.685 43V34.456H112.221V43H110.685ZM109.373 35.672V34.456H112.221V35.672H109.373ZM111.117 33.08C110.776 33.08 110.52 32.9893 110.349 32.808C110.189 32.6267 110.109 32.3973 110.109 32.12C110.109 31.8427 110.189 31.6133 110.349 31.432C110.52 31.2507 110.776 31.16 111.117 31.16C111.458 31.16 111.709 31.2507 111.869 31.432C112.04 31.6133 112.125 31.8427 112.125 32.12C112.125 32.3973 112.04 32.6267 111.869 32.808C111.709 32.9893 111.458 33.08 111.117 33.08ZM118.823 43.288C118.076 43.288 117.431 43.16 116.887 42.904C116.343 42.648 115.9 42.312 115.559 41.896C115.217 41.4693 114.961 40.9947 114.791 40.472C114.631 39.9493 114.551 39.416 114.551 38.872V38.584C114.551 38.0293 114.631 37.4907 114.791 36.968C114.961 36.4453 115.217 35.976 115.559 35.56C115.9 35.1333 116.332 34.7973 116.855 34.552C117.388 34.296 118.012 34.168 118.727 34.168C119.655 34.168 120.417 34.3707 121.015 34.776C121.623 35.1707 122.071 35.6827 122.359 36.312C122.657 36.9413 122.807 37.6133 122.807 38.328V39.016H115.223V37.864H121.687L121.335 38.488C121.335 37.88 121.239 37.3573 121.047 36.92C120.855 36.472 120.567 36.1253 120.183 35.88C119.799 35.6347 119.313 35.512 118.727 35.512C118.119 35.512 117.612 35.6507 117.207 35.928C116.812 36.2053 116.513 36.584 116.311 37.064C116.119 37.544 116.023 38.0987 116.023 38.728C116.023 39.336 116.119 39.8853 116.311 40.376C116.513 40.856 116.823 41.24 117.239 41.528C117.655 41.8053 118.183 41.944 118.823 41.944C119.495 41.944 120.039 41.7947 120.455 41.496C120.881 41.1973 121.137 40.8507 121.223 40.456H122.663C122.545 41.0427 122.311 41.5493 121.959 41.976C121.607 42.4027 121.164 42.728 120.631 42.952C120.097 43.176 119.495 43.288 118.823 43.288ZM124.988 43V34.456H126.204V38.12H126.012C126.012 37.2773 126.124 36.568 126.348 35.992C126.582 35.4053 126.934 34.9627 127.404 34.664C127.873 34.3547 128.465 34.2 129.18 34.2H129.244C130.321 34.2 131.116 34.536 131.628 35.208C132.15 35.88 132.412 36.8507 132.412 38.12V43H130.876V37.8C130.876 37.1387 130.689 36.6107 130.316 36.216C129.942 35.8107 129.43 35.608 128.78 35.608C128.108 35.608 127.564 35.816 127.148 36.232C126.732 36.648 126.524 37.2027 126.524 37.896V43H124.988ZM138.886 43.288C138.15 43.288 137.51 43.16 136.966 42.904C136.433 42.648 135.99 42.3067 135.638 41.88C135.286 41.4427 135.019 40.9627 134.838 40.44C134.667 39.9173 134.582 39.3947 134.582 38.872V38.584C134.582 38.04 134.667 37.5067 134.838 36.984C135.019 36.4613 135.286 35.992 135.638 35.576C136.001 35.1493 136.449 34.808 136.982 34.552C137.515 34.296 138.139 34.168 138.854 34.168C139.569 34.168 140.209 34.3013 140.774 34.568C141.35 34.8347 141.809 35.2133 142.15 35.704C142.502 36.184 142.699 36.7547 142.742 37.416H141.27C141.195 36.8827 140.95 36.44 140.534 36.088C140.118 35.7253 139.558 35.544 138.854 35.544C138.246 35.544 137.739 35.6827 137.334 35.96C136.929 36.2373 136.625 36.616 136.422 37.096C136.219 37.576 136.118 38.12 136.118 38.728C136.118 39.3147 136.219 39.8533 136.422 40.344C136.625 40.824 136.929 41.208 137.334 41.496C137.75 41.7733 138.267 41.912 138.886 41.912C139.366 41.912 139.782 41.8267 140.134 41.656C140.486 41.4853 140.769 41.256 140.982 40.968C141.195 40.68 141.323 40.3547 141.366 39.992H142.838C142.806 40.664 142.609 41.2453 142.246 41.736C141.894 42.2267 141.425 42.6107 140.838 42.888C140.262 43.1547 139.611 43.288 138.886 43.288ZM148.557 43.288C147.81 43.288 147.165 43.16 146.621 42.904C146.077 42.648 145.634 42.312 145.293 41.896C144.952 41.4693 144.696 40.9947 144.525 40.472C144.365 39.9493 144.285 39.416 144.285 38.872V38.584C144.285 38.0293 144.365 37.4907 144.525 36.968C144.696 36.4453 144.952 35.976 145.293 35.56C145.634 35.1333 146.066 34.7973 146.589 34.552C147.122 34.296 147.746 34.168 148.461 34.168C149.389 34.168 150.152 34.3707 150.749 34.776C151.357 35.1707 151.805 35.6827 152.093 36.312C152.392 36.9413 152.541 37.6133 152.541 38.328V39.016H144.957V37.864H151.421L151.069 38.488C151.069 37.88 150.973 37.3573 150.781 36.92C150.589 36.472 150.301 36.1253 149.917 35.88C149.533 35.6347 149.048 35.512 148.461 35.512C147.853 35.512 147.346 35.6507 146.941 35.928C146.546 36.2053 146.248 36.584 146.045 37.064C145.853 37.544 145.757 38.0987 145.757 38.728C145.757 39.336 145.853 39.8853 146.045 40.376C146.248 40.856 146.557 41.24 146.973 41.528C147.389 41.8053 147.917 41.944 148.557 41.944C149.229 41.944 149.773 41.7947 150.189 41.496C150.616 41.1973 150.872 40.8507 150.957 40.456H152.397C152.28 41.0427 152.045 41.5493 151.693 41.976C151.341 42.4027 150.898 42.728 150.365 42.952C149.832 43.176 149.229 43.288 148.557 43.288Z" fill="white"/>
</g>
<defs>
<filter id="filter0_d_15_79" x="0" y="0" width="156" height="48" filterUnits="userSpaceOnUse" color-interpolation-filters="sRGB">
<feFlood flood-opacity="0" result="BackgroundImageFix"/>
<feColorMatrix in="SourceAlpha" type="matrix" values="0 0 0 0 0 0 0 0 0 0 0 0 0 0 0 0 0 0 127 0" result="hardAlpha"/>
<feOffset dx="2" dy="2"/>
<feComposite in2="hardAlpha" operator="out"/>
<feColorMatrix type="matrix" values="0 0 0 0 0 0 0 0 0 0 0 0 0 0 0 0 0 0 0.06 0"/>
<feBlend mode="normal" in2="BackgroundImageFix" result="effect1_dropShadow_15_79"/>
<feBlend mode="normal" in="SourceGraphic" in2="effect1_dropShadow_15_79" result="shape"/>
</filter>
<linearGradient id="paint0_linear_15_79" x1="0.326242" y1="1.09522" x2="52.9156" y2="6.01697" gradientUnits="userSpaceOnUse">
<stop stop-color="#E65C00"/>
<stop offset="1" stop-color="#FF8C42"/>
</linearGradient>
</defs>
</svg>
