<svg width="56" height="56" viewBox="0 0 56 56" fill="none" xmlns="http://www.w3.org/2000/svg">
<g filter="url(#filter0_d_86_131)">
<path d="M0.436051 11.5568C0.712128 5.51921 5.51921 0.712128 11.5568 0.436051C16.5202 0.209089 22.3537 0 27 0C31.6463 0 37.4798 0.20909 42.4432 0.436051C48.4808 0.712128 53.2879 5.51921 53.5639 11.5568C53.7909 16.5202 54 22.3537 54 27C54 31.6463 53.7909 37.4798 53.5639 42.4432C53.2879 48.4808 48.4808 53.2879 42.4432 53.5639C37.4798 53.7909 31.6463 54 27 54C22.3537 54 16.5202 53.7909 11.5568 53.5639C5.51921 53.2879 0.712128 48.4808 0.436051 42.4432C0.209089 37.4798 0 31.6463 0 27C0 22.3537 0.20909 16.5202 0.436051 11.5568Z" fill="url(#paint0_linear_86_131)"/>
</g>
<path d="M20 23.75C17.93 23.75 16.25 22.07 16.25 20C16.25 17.93 17.93 16.25 20 16.25C22.07 16.25 23.75 17.93 23.75 20C23.75 22.07 22.07 23.75 20 23.75ZM20 17.75C18.76 17.75 17.75 18.76 17.75 20C17.75 21.24 18.76 22.25 20 22.25C21.24 22.25 22.25 21.24 22.25 20C22.25 18.76 21.24 17.75 20 17.75Z" fill="white"/>
<path d="M34 30.75C31.93 30.75 30.25 29.07 30.25 27C30.25 24.93 31.93 23.25 34 23.25C36.07 23.25 37.75 24.93 37.75 27C37.75 29.07 36.07 30.75 34 30.75ZM34 24.75C32.76 24.75 31.75 25.76 31.75 27C31.75 28.24 32.76 29.25 34 29.25C35.24 29.25 36.25 28.24 36.25 27C36.25 25.76 35.24 24.75 34 24.75Z" fill="white"/>
<path d="M20 37.75C17.93 37.75 16.25 36.07 16.25 34C16.25 31.93 17.93 30.25 20 30.25C22.07 30.25 23.75 31.93 23.75 34C23.75 36.07 22.07 37.75 20 37.75ZM20 31.75C18.76 31.75 17.75 32.76 17.75 34C17.75 35.24 18.76 36.25 20 36.25C21.24 36.25 22.25 35.24 22.25 34C22.25 32.76 21.24 31.75 20 31.75Z" fill="white"/>
<path d="M20 31.75C19.59 31.75 19.25 31.41 19.25 31V23C19.25 22.59 19.59 22.25 20 22.25C20.41 22.25 20.75 22.59 20.75 23C20.75 25.19 21.81 26.25 24 26.25H31C31.41 26.25 31.75 26.59 31.75 27C31.75 27.41 31.41 27.75 31 27.75H24C22.64 27.75 21.55 27.4 20.75 26.74V31C20.75 31.41 20.41 31.75 20 31.75Z" fill="white"/>
<defs>
<filter id="filter0_d_86_131" x="0" y="0" width="56" height="56" filterUnits="userSpaceOnUse" color-interpolation-filters="sRGB">
<feFlood flood-opacity="0" result="BackgroundImageFix"/>
<feColorMatrix in="SourceAlpha" type="matrix" values="0 0 0 0 0 0 0 0 0 0 0 0 0 0 0 0 0 0 127 0" result="hardAlpha"/>
<feOffset dx="2" dy="2"/>
<feComposite in2="hardAlpha" operator="out"/>
<feColorMatrix type="matrix" values="0 0 0 0 0 0 0 0 0 0 0 0 0 0 0 0 0 0 0.06 0"/>
<feBlend mode="normal" in2="BackgroundImageFix" result="effect1_dropShadow_86_131"/>
<feBlend mode="normal" in="SourceGraphic" in2="effect1_dropShadow_86_131" result="shape"/>
</filter>
<linearGradient id="paint0_linear_86_131" x1="1.39214" y1="2.28966" x2="64.5806" y2="8.32612" gradientUnits="userSpaceOnUse">
<stop stop-color="#E65C00"/>
<stop offset="1" stop-color="#FF8C42"/>
</linearGradient>
</defs>
</svg>
