<svg width="56" height="56" viewBox="0 0 56 56" fill="none" xmlns="http://www.w3.org/2000/svg">
<g filter="url(#filter0_d_86_132)">
<path d="M0.436051 11.5568C0.712128 5.51921 5.51921 0.712128 11.5568 0.436051C16.5202 0.209089 22.3537 0 27 0C31.6463 0 37.4798 0.20909 42.4432 0.436051C48.4808 0.712128 53.2879 5.51921 53.5639 11.5568C53.7909 16.5202 54 22.3537 54 27C54 31.6463 53.7909 37.4798 53.5639 42.4432C53.2879 48.4808 48.4808 53.2879 42.4432 53.5639C37.4798 53.7909 31.6463 54 27 54C22.3537 54 16.5202 53.7909 11.5568 53.5639C5.51921 53.2879 0.712128 48.4808 0.436051 42.4432C0.209089 37.4798 0 31.6463 0 27C0 22.3537 0.20909 16.5202 0.436051 11.5568Z" fill="url(#paint0_linear_86_132)"/>
</g>
<path d="M29.9999 37.75H23.9999C21.9299 37.75 20.2499 36.07 20.2499 34V28.98C20.2499 28.78 20.3298 28.59 20.4698 28.45C20.6098 28.31 20.7999 28.23 20.9999 28.23L24.8899 28.25C25.7299 28.25 26.5699 28.45 27.3299 28.83C27.8899 29.11 28.4899 29.25 29.1199 29.25H32.9999C33.4099 29.25 33.7499 29.59 33.7499 30V34C33.7499 36.07 32.0699 37.75 29.9999 37.75ZM21.7499 29.73V34C21.7499 35.24 22.7599 36.25 23.9999 36.25H29.9999C31.2399 36.25 32.2499 35.24 32.2499 34V30.75H29.1199C28.2599 30.75 27.4299 30.56 26.6599 30.17C26.0999 29.89 25.4999 29.75 24.8899 29.75L21.7499 29.73Z" fill="white"/>
<path d="M32.9999 30.75H29.1199C28.2599 30.75 27.4299 30.56 26.6599 30.17C26.0999 29.89 25.4999 29.75 24.8899 29.75L20.9999 29.73C20.5899 29.73 20.2499 29.39 20.2499 28.98V25.83C20.2499 25.17 20.5899 24.35 21.0599 23.88L23.1799 21.76C23.2199 21.72 23.2499 21.65 23.2499 21.59V20C23.2499 19.59 23.5899 19.25 23.9999 19.25H29.9999C30.4099 19.25 30.7499 19.59 30.7499 20V21.59C30.7499 21.65 30.7799 21.72 30.8199 21.76L32.9399 23.88C33.4099 24.35 33.7499 25.17 33.7499 25.83V30C33.7499 30.41 33.4099 30.75 32.9999 30.75ZM21.7499 28.23L24.8899 28.25C25.7299 28.25 26.5699 28.45 27.3299 28.83C27.8899 29.11 28.4899 29.25 29.1199 29.25H32.2499V25.83C32.2499 25.57 32.0699 25.13 31.8799 24.94L29.7599 22.82C29.4399 22.5 29.2499 22.05 29.2499 21.59V20.75H24.7499V21.59C24.7499 22.05 24.5599 22.5 24.2399 22.82L22.1199 24.94C21.9299 25.13 21.7499 25.57 21.7499 25.83V28.23Z" fill="white"/>
<path d="M32.9999 31.75C32.5899 31.75 32.2499 31.41 32.2499 31V30C32.2499 29.59 32.5899 29.25 32.9999 29.25C33.4099 29.25 33.7499 29.59 33.7499 30V31C33.7499 31.41 33.4099 31.75 32.9999 31.75Z" fill="white"/>
<path d="M20.9999 30.73C20.5899 30.73 20.2499 30.39 20.2499 29.98V28.98C20.2499 28.57 20.5899 28.23 20.9999 28.23C21.4099 28.23 21.7499 28.57 21.7499 28.98V29.98C21.7499 30.39 21.4099 30.73 20.9999 30.73Z" fill="white"/>
<path d="M29.4999 20.75H24.4999C23.2599 20.75 22.2499 19.74 22.2499 18.5C22.2499 17.26 23.2599 16.25 24.4999 16.25H29.4999C30.7399 16.25 31.7499 17.26 31.7499 18.5C31.7499 19.74 30.7399 20.75 29.4999 20.75ZM24.4999 17.75C24.0899 17.75 23.7499 18.09 23.7499 18.5C23.7499 18.91 24.0899 19.25 24.4999 19.25H29.4999C29.9099 19.25 30.2499 18.91 30.2499 18.5C30.2499 18.09 29.9099 17.75 29.4999 17.75H24.4999Z" fill="white"/>
<defs>
<filter id="filter0_d_86_132" x="0" y="0" width="56" height="56" filterUnits="userSpaceOnUse" color-interpolation-filters="sRGB">
<feFlood flood-opacity="0" result="BackgroundImageFix"/>
<feColorMatrix in="SourceAlpha" type="matrix" values="0 0 0 0 0 0 0 0 0 0 0 0 0 0 0 0 0 0 127 0" result="hardAlpha"/>
<feOffset dx="2" dy="2"/>
<feComposite in2="hardAlpha" operator="out"/>
<feColorMatrix type="matrix" values="0 0 0 0 0 0 0 0 0 0 0 0 0 0 0 0 0 0 0.06 0"/>
<feBlend mode="normal" in2="BackgroundImageFix" result="effect1_dropShadow_86_132"/>
<feBlend mode="normal" in="SourceGraphic" in2="effect1_dropShadow_86_132" result="shape"/>
</filter>
<linearGradient id="paint0_linear_86_132" x1="1.39214" y1="2.28966" x2="64.5806" y2="8.32612" gradientUnits="userSpaceOnUse">
<stop stop-color="#E65C00"/>
<stop offset="1" stop-color="#FF8C42"/>
</linearGradient>
</defs>
</svg>
