<svg width="50" height="50" viewBox="0 0 50 50" fill="none" xmlns="http://www.w3.org/2000/svg">
<g filter="url(#filter0_d_24_525)">
<path d="M0.335139 11.447C0.598421 5.40883 5.40883 0.598421 11.447 0.335139C15.5837 0.154765 20.2312 0 24 0C27.7688 0 32.4163 0.154765 36.553 0.335139C42.5912 0.598421 47.4016 5.40883 47.6649 11.447C47.8452 15.5837 48 20.2312 48 24C48 27.7688 47.8452 32.4163 47.6649 36.553C47.4016 42.5912 42.5912 47.4016 36.553 47.6649C32.4163 47.8452 27.7688 48 24 48C20.2312 48 15.5837 47.8452 11.447 47.6649C5.40883 47.4016 0.598421 42.5912 0.335139 36.553C0.154765 32.4163 0 27.7688 0 24C0 20.2312 0.154765 15.5837 0.335139 11.447Z" fill="url(#paint0_linear_24_525)"/>
</g>
<path fill-rule="evenodd" clip-rule="evenodd" d="M17 13.25C15.4812 13.25 14.25 14.4812 14.25 16C14.25 17.5188 15.4812 18.75 17 18.75C18.5188 18.75 19.75 17.5188 19.75 16C19.75 14.4812 18.5188 13.25 17 13.25ZM15.75 16C15.75 15.3096 16.3096 14.75 17 14.75C17.6904 14.75 18.25 15.3096 18.25 16C18.25 16.6904 17.6904 17.25 17 17.25C16.3096 17.25 15.75 16.6904 15.75 16Z" fill="white"/>
<path fill-rule="evenodd" clip-rule="evenodd" d="M14.25 20C14.25 19.5858 14.5858 19.25 15 19.25H19C19.4142 19.25 19.75 19.5858 19.75 20V33C19.75 33.4142 19.4142 33.75 19 33.75H15C14.5858 33.75 14.25 33.4142 14.25 33V20ZM15.75 20.75V32.25H18.25V20.75H15.75Z" fill="white"/>
<path fill-rule="evenodd" clip-rule="evenodd" d="M21.25 20C21.25 19.5858 21.5858 19.25 22 19.25H26C26.4142 19.25 26.75 19.5858 26.75 20V20.434L27.1853 20.2475C27.9336 19.9268 28.7339 19.7256 29.5433 19.6521C32.3182 19.3998 34.75 21.5804 34.75 24.3802V33C34.75 33.4142 34.4142 33.75 34 33.75H30C29.5858 33.75 29.25 33.4142 29.25 33V26C29.25 25.6685 29.1183 25.3505 28.8839 25.1161C28.6495 24.8817 28.3315 24.75 28 24.75C27.6685 24.75 27.3505 24.8817 27.1161 25.1161C26.8817 25.3505 26.75 25.6685 26.75 26V33C26.75 33.4142 26.4142 33.75 26 33.75H22C21.5858 33.75 21.25 33.4142 21.25 33V20ZM22.75 20.75V32.25H25.25V26C25.25 25.2707 25.5397 24.5712 26.0555 24.0555C26.5712 23.5397 27.2707 23.25 28 23.25C28.7293 23.25 29.4288 23.5397 29.9445 24.0555C30.4603 24.5712 30.75 25.2707 30.75 26V32.25H33.25V24.3802C33.25 22.4759 31.589 20.9723 29.6791 21.1459C29.025 21.2054 28.3784 21.3681 27.7762 21.6262L26.2954 22.2608C26.0637 22.3601 25.7976 22.3363 25.5871 22.1976C25.3767 22.0588 25.25 21.8235 25.25 21.5714V20.75H22.75Z" fill="white"/>
<defs>
<filter id="filter0_d_24_525" x="0" y="0" width="50" height="50" filterUnits="userSpaceOnUse" color-interpolation-filters="sRGB">
<feFlood flood-opacity="0" result="BackgroundImageFix"/>
<feColorMatrix in="SourceAlpha" type="matrix" values="0 0 0 0 0 0 0 0 0 0 0 0 0 0 0 0 0 0 127 0" result="hardAlpha"/>
<feOffset dx="2" dy="2"/>
<feComposite in2="hardAlpha" operator="out"/>
<feColorMatrix type="matrix" values="0 0 0 0 0 0 0 0 0 0 0 0 0 0 0 0 0 0 0.06 0"/>
<feBlend mode="normal" in2="BackgroundImageFix" result="effect1_dropShadow_24_525"/>
<feBlend mode="normal" in="SourceGraphic" in2="effect1_dropShadow_24_525" result="shape"/>
</filter>
<linearGradient id="paint0_linear_24_525" x1="1.23746" y1="2.03526" x2="57.4049" y2="7.401" gradientUnits="userSpaceOnUse">
<stop stop-color="#E65C00"/>
<stop offset="1" stop-color="#FF8C42"/>
</linearGradient>
</defs>
</svg>
