<svg width="50" height="50" viewBox="0 0 50 50" fill="none" xmlns="http://www.w3.org/2000/svg">
<g filter="url(#filter0_d_24_514)">
<path d="M0.335139 11.447C0.598421 5.40883 5.40883 0.598421 11.447 0.335139C15.5837 0.154765 20.2312 0 24 0C27.7688 0 32.4163 0.154765 36.553 0.335139C42.5912 0.598421 47.4016 5.40883 47.6649 11.447C47.8452 15.5837 48 20.2312 48 24C48 27.7688 47.8452 32.4163 47.6649 36.553C47.4016 42.5912 42.5912 47.4016 36.553 47.6649C32.4163 47.8452 27.7688 48 24 48C20.2312 48 15.5837 47.8452 11.447 47.6649C5.40883 47.4016 0.598421 42.5912 0.335139 36.553C0.154765 32.4163 0 27.7688 0 24C0 20.2312 0.154765 15.5837 0.335139 11.447Z" fill="url(#paint0_linear_24_514)"/>
</g>
<path d="M16 18L24.2286 24L31.9999 18M33 20.2V27.8C33 28.9201 33.0002 29.4802 32.7822 29.908C32.5905 30.2844 32.2841 30.5902 31.9078 30.782C31.48 31 30.9203 31 29.8002 31H18.2002C17.0801 31 16.5196 31 16.0918 30.782C15.7155 30.5902 15.4097 30.2844 15.218 29.908C15 29.4802 15 28.9201 15 27.8V20.2C15 19.0798 15 18.5199 15.218 18.092C15.4097 17.7157 15.7155 17.4097 16.0918 17.218C16.5196 17 17.0801 17 18.2002 17H29.8002C30.9203 17 31.48 17 31.9078 17.218C32.2841 17.4097 32.5905 17.7157 32.7822 18.092C33.0002 18.5199 33 19.0798 33 20.2Z" stroke="white" stroke-width="2" stroke-linecap="round" stroke-linejoin="round"/>
<defs>
<filter id="filter0_d_24_514" x="0" y="0" width="50" height="50" filterUnits="userSpaceOnUse" color-interpolation-filters="sRGB">
<feFlood flood-opacity="0" result="BackgroundImageFix"/>
<feColorMatrix in="SourceAlpha" type="matrix" values="0 0 0 0 0 0 0 0 0 0 0 0 0 0 0 0 0 0 127 0" result="hardAlpha"/>
<feOffset dx="2" dy="2"/>
<feComposite in2="hardAlpha" operator="out"/>
<feColorMatrix type="matrix" values="0 0 0 0 0 0 0 0 0 0 0 0 0 0 0 0 0 0 0.06 0"/>
<feBlend mode="normal" in2="BackgroundImageFix" result="effect1_dropShadow_24_514"/>
<feBlend mode="normal" in="SourceGraphic" in2="effect1_dropShadow_24_514" result="shape"/>
</filter>
<linearGradient id="paint0_linear_24_514" x1="1.23746" y1="2.03526" x2="57.4049" y2="7.401" gradientUnits="userSpaceOnUse">
<stop stop-color="#E65C00"/>
<stop offset="1" stop-color="#FF8C42"/>
</linearGradient>
</defs>
</svg>
