<svg width="56" height="56" viewBox="0 0 56 56" fill="none" xmlns="http://www.w3.org/2000/svg">
<g filter="url(#filter0_d_314_414)">
<path d="M0.436051 11.5568C0.712128 5.51921 5.51921 0.712128 11.5568 0.436051C16.5202 0.209089 22.3537 0 27 0C31.6463 0 37.4798 0.20909 42.4432 0.436051C48.4808 0.712128 53.2879 5.51921 53.5639 11.5568C53.7909 16.5202 54 22.3537 54 27C54 31.6463 53.7909 37.4798 53.5639 42.4432C53.2879 48.4808 48.4808 53.2879 42.4432 53.5639C37.4798 53.7909 31.6463 54 27 54C22.3537 54 16.5202 53.7909 11.5568 53.5639C5.51921 53.2879 0.712128 48.4808 0.436051 42.4432C0.209089 37.4798 0 31.6463 0 27C0 22.3537 0.20909 16.5202 0.436051 11.5568Z" fill="url(#paint0_linear_314_414)"/>
</g>
<path d="M20 23.75C17.93 23.75 16.25 22.07 16.25 20C16.25 17.93 17.93 16.25 20 16.25C22.07 16.25 23.75 17.93 23.75 20C23.75 22.07 22.07 23.75 20 23.75ZM20 17.75C18.76 17.75 17.75 18.76 17.75 20C17.75 21.24 18.76 22.25 20 22.25C21.24 22.25 22.25 21.24 22.25 20C22.25 18.76 21.24 17.75 20 17.75Z" fill="white"/>
<path d="M34 30.75C31.93 30.75 30.25 29.07 30.25 27C30.25 24.93 31.93 23.25 34 23.25C36.07 23.25 37.75 24.93 37.75 27C37.75 29.07 36.07 30.75 34 30.75ZM34 24.75C32.76 24.75 31.75 25.76 31.75 27C31.75 28.24 32.76 29.25 34 29.25C35.24 29.25 36.25 28.24 36.25 27C36.25 25.76 35.24 24.75 34 24.75Z" fill="white"/>
<path d="M20 37.75C17.93 37.75 16.25 36.07 16.25 34C16.25 31.93 17.93 30.25 20 30.25C22.07 30.25 23.75 31.93 23.75 34C23.75 36.07 22.07 37.75 20 37.75ZM20 31.75C18.76 31.75 17.75 32.76 17.75 34C17.75 35.24 18.76 36.25 20 36.25C21.24 36.25 22.25 35.24 22.25 34C22.25 32.76 21.24 31.75 20 31.75Z" fill="white"/>
<path d="M20 31.75C19.59 31.75 19.25 31.41 19.25 31V23C19.25 22.59 19.59 22.25 20 22.25C20.41 22.25 20.75 22.59 20.75 23C20.75 25.19 21.81 26.25 24 26.25H31C31.41 26.25 31.75 26.59 31.75 27C31.75 27.41 31.41 27.75 31 27.75H24C22.64 27.75 21.55 27.4 20.75 26.74V31C20.75 31.41 20.41 31.75 20 31.75Z" fill="white"/>
<path d="M23 37.3199C22.72 37.3199 22.43 37.2499 22.17 37.1099C21.6 36.8099 21.25 36.2099 21.25 35.5699V34.15C18.23 33.84 16.25 31.6199 16.25 28.4399V22.4399C16.25 18.9999 18.56 16.6899 22 16.6899H32C35.44 16.6899 37.75 18.9999 37.75 22.4399V28.4399C37.75 31.8799 35.44 34.1899 32 34.1899H28.23L23.97 37.03C23.68 37.22 23.34 37.3199 23 37.3199ZM22 18.1799C19.42 18.1799 17.75 19.8499 17.75 22.4299V28.43C17.75 31.01 19.42 32.68 22 32.68C22.41 32.68 22.75 33.02 22.75 33.43V35.56C22.75 35.69 22.83 35.75 22.88 35.78C22.93 35.81 23.03 35.84 23.14 35.77L27.59 32.81C27.71 32.73 27.86 32.68 28.01 32.68H32.01C34.59 32.68 36.26 31.01 36.26 28.43V22.4299C36.26 19.8499 34.59 18.1799 32.01 18.1799H22Z" fill="white"/>
<path d="M26.9998 27.11C26.5898 27.11 26.2498 26.77 26.2498 26.36V26.15C26.2498 24.99 27.0998 24.42 27.4198 24.2C27.7898 23.95 27.9098 23.78 27.9098 23.52C27.9098 23.02 27.4998 22.61 26.9998 22.61C26.4998 22.61 26.0898 23.02 26.0898 23.52C26.0898 23.93 25.7498 24.27 25.3398 24.27C24.9298 24.27 24.5898 23.93 24.5898 23.52C24.5898 22.19 25.6698 21.11 26.9998 21.11C28.3298 21.11 29.4098 22.19 29.4098 23.52C29.4098 24.66 28.5698 25.23 28.2598 25.44C27.8698 25.7 27.7498 25.87 27.7498 26.15V26.36C27.7498 26.78 27.4098 27.11 26.9998 27.11Z" fill="white"/>
<path d="M27 29.6C26.58 29.6 26.25 29.26 26.25 28.85C26.25 28.44 26.59 28.1 27 28.1C27.41 28.1 27.75 28.44 27.75 28.85C27.75 29.26 27.42 29.6 27 29.6Z" fill="white"/>
<defs>
<filter id="filter0_d_314_414" x="0" y="0" width="56" height="56" filterUnits="userSpaceOnUse" color-interpolation-filters="sRGB">
<feFlood flood-opacity="0" result="BackgroundImageFix"/>
<feColorMatrix in="SourceAlpha" type="matrix" values="0 0 0 0 0 0 0 0 0 0 0 0 0 0 0 0 0 0 127 0" result="hardAlpha"/>
<feOffset dx="2" dy="2"/>
<feComposite in2="hardAlpha" operator="out"/>
<feColorMatrix type="matrix" values="0 0 0 0 0 0 0 0 0 0 0 0 0 0 0 0 0 0 0.06 0"/>
<feBlend mode="normal" in2="BackgroundImageFix" result="effect1_dropShadow_314_414"/>
<feBlend mode="normal" in="SourceGraphic" in2="effect1_dropShadow_314_414" result="shape"/>
</filter>
<linearGradient id="paint0_linear_314_414" x1="1.39214" y1="2.28966" x2="64.5806" y2="8.32612" gradientUnits="userSpaceOnUse">
<stop stop-color="#E65C00"/>
<stop offset="1" stop-color="#FF8C42"/>
</linearGradient>
</defs>
</svg>
