<svg width="56" height="56" viewBox="0 0 56 56" fill="none" xmlns="http://www.w3.org/2000/svg">
<g filter="url(#filter0_d_314_599)">
<path d="M0.436051 11.5568C0.712128 5.51921 5.51921 0.712128 11.5568 0.436051C16.5202 0.209089 22.3537 0 27 0C31.6463 0 37.4798 0.20909 42.4432 0.436051C48.4808 0.712128 53.2879 5.51921 53.5639 11.5568C53.7909 16.5202 54 22.3537 54 27C54 31.6463 53.7909 37.4798 53.5639 42.4432C53.2879 48.4808 48.4808 53.2879 42.4432 53.5639C37.4798 53.7909 31.6463 54 27 54C22.3537 54 16.5202 53.7909 11.5568 53.5639C5.51921 53.2879 0.712128 48.4808 0.436051 42.4432C0.209089 37.4798 0 31.6463 0 27C0 22.3537 0.20909 16.5202 0.436051 11.5568Z" fill="url(#paint0_linear_314_599)"/>
</g>
<path d="M23.5401 37.71C22.5401 37.71 21.5902 37.32 20.8902 36.61L17.3802 33.1C15.9202 31.64 15.9202 29.26 17.3802 27.8L27.8101 17.37C29.2201 15.96 31.7001 15.96 33.1101 17.37L36.6201 20.88C38.0801 22.34 38.0801 24.72 36.6201 26.18L26.1902 36.61C25.4902 37.33 24.5501 37.71 23.5401 37.71ZM18.4402 32.05L21.9502 35.56C22.8002 36.41 24.2902 36.41 25.1302 35.56L35.5601 25.13C36.4401 24.25 36.4401 22.83 35.5601 21.95L32.0501 18.44C31.2101 17.6 29.7201 17.59 28.8701 18.44L18.4402 28.87C17.5602 29.74 17.5602 31.17 18.4402 32.05Z" fill="white"/>
<path d="M30.8705 31.6301C30.6805 31.6301 30.4905 31.5601 30.3405 31.4101L22.5905 23.6601C22.3005 23.3701 22.3005 22.8901 22.5905 22.6001C22.8805 22.3101 23.3605 22.3101 23.6505 22.6001L31.4005 30.3501C31.6905 30.6401 31.6905 31.1201 31.4005 31.4101C31.2505 31.5601 31.0605 31.6301 30.8705 31.6301Z" fill="white"/>
<defs>
<filter id="filter0_d_314_599" x="0" y="0" width="56" height="56" filterUnits="userSpaceOnUse" color-interpolation-filters="sRGB">
<feFlood flood-opacity="0" result="BackgroundImageFix"/>
<feColorMatrix in="SourceAlpha" type="matrix" values="0 0 0 0 0 0 0 0 0 0 0 0 0 0 0 0 0 0 127 0" result="hardAlpha"/>
<feOffset dx="2" dy="2"/>
<feComposite in2="hardAlpha" operator="out"/>
<feColorMatrix type="matrix" values="0 0 0 0 0 0 0 0 0 0 0 0 0 0 0 0 0 0 0.06 0"/>
<feBlend mode="normal" in2="BackgroundImageFix" result="effect1_dropShadow_314_599"/>
<feBlend mode="normal" in="SourceGraphic" in2="effect1_dropShadow_314_599" result="shape"/>
</filter>
<linearGradient id="paint0_linear_314_599" x1="1.39214" y1="2.28966" x2="64.5806" y2="8.32612" gradientUnits="userSpaceOnUse">
<stop stop-color="#E65C00"/>
<stop offset="1" stop-color="#FF8C42"/>
</linearGradient>
</defs>
</svg>
