<svg width="159" height="50" viewBox="0 0 159 50" fill="none" xmlns="http://www.w3.org/2000/svg">
<g filter="url(#filter0_d_391_2785)">
<path d="M0.456105 11.9447C0.805192 5.82256 5.81968 1.07678 11.9503 0.941654C27.7838 0.592665 57.7182 0 78.4043 0C99.1071 0 129.169 0.593629 145.048 0.942504C151.179 1.0772 156.195 5.82317 156.544 11.9458C156.789 16.2371 157 21.0789 157 25C157 28.5592 156.826 32.5846 156.611 36.1995C156.25 42.2616 151.259 46.9209 145.188 47.0544C129.345 47.4029 99.1678 48 78.4043 48C57.6573 48 27.6076 47.4038 11.8109 47.0553C5.74003 46.9213 0.750104 42.2622 0.389341 36.2006C0.174177 32.5853 0 28.5595 0 25C0 21.0786 0.211398 16.2363 0.456105 11.9447Z" fill="url(#paint0_linear_391_2785)"/>
<g filter="url(#filter1_d_391_2785)">
<path d="M20.424 29.304C19.3893 29.304 18.5147 29.1387 17.8 28.808C17.096 28.4773 16.5573 28.024 16.184 27.448C15.8107 26.8613 15.624 26.2 15.624 25.464H17.848C17.848 25.7733 17.9333 26.0773 18.104 26.376C18.2747 26.664 18.5467 26.8987 18.92 27.08C19.304 27.2613 19.8053 27.352 20.424 27.352C20.9787 27.352 21.4427 27.272 21.816 27.112C22.1893 26.952 22.4667 26.744 22.648 26.488C22.8293 26.2213 22.92 25.9227 22.92 25.592C22.92 25.176 22.744 24.8453 22.392 24.6C22.04 24.344 21.496 24.184 20.76 24.12L19.736 24.04C18.616 23.944 17.72 23.5973 17.048 23C16.3867 22.392 16.056 21.592 16.056 20.6C16.056 19.8533 16.232 19.2133 16.584 18.68C16.936 18.136 17.4267 17.72 18.056 17.432C18.696 17.1333 19.4427 16.984 20.296 16.984C21.1813 16.984 21.944 17.1387 22.584 17.448C23.224 17.7573 23.72 18.1947 24.072 18.76C24.424 19.3147 24.6 19.9707 24.6 20.728H22.376C22.376 20.408 22.296 20.1147 22.136 19.848C21.9867 19.5707 21.7573 19.352 21.448 19.192C21.1493 19.0213 20.7653 18.936 20.296 18.936C19.848 18.936 19.4747 19.0107 19.176 19.16C18.8773 19.3093 18.6533 19.512 18.504 19.768C18.3547 20.024 18.28 20.3013 18.28 20.6C18.28 20.9627 18.4133 21.2827 18.68 21.56C18.9467 21.8267 19.368 21.9813 19.944 22.024L20.968 22.12C21.8 22.184 22.5307 22.36 23.16 22.648C23.7893 22.936 24.2747 23.3253 24.616 23.816C24.968 24.3067 25.144 24.8987 25.144 25.592C25.144 26.328 24.952 26.9787 24.568 27.544C24.184 28.0987 23.6347 28.5307 22.92 28.84C22.216 29.1493 21.384 29.304 20.424 29.304ZM29.6853 29.272C28.6826 29.272 27.9039 28.9413 27.3493 28.28C26.8053 27.6187 26.5333 26.6373 26.5333 25.336V20.296H28.7573V25.528C28.7573 26.0613 28.9066 26.488 29.2053 26.808C29.5039 27.1173 29.9093 27.272 30.4213 27.272C30.9333 27.272 31.3493 27.1067 31.6693 26.776C31.9999 26.4453 32.1653 25.9973 32.1653 25.432V20.296H34.3893V29H32.6293V25.304H32.8053C32.8053 26.1787 32.6933 26.9093 32.4693 27.496C32.2453 28.0827 31.9093 28.5253 31.4613 28.824C31.0133 29.1227 30.4533 29.272 29.7813 29.272H29.6853ZM41.728 29.288C41.0133 29.288 40.384 29.1387 39.84 28.84C39.296 28.5307 38.8693 28.0827 38.56 27.496C38.2507 26.9093 38.08 26.2 38.048 25.368H38.384V29H36.624V17.32H38.848V23.16L38.256 24.072C38.2987 23.176 38.4747 22.4293 38.784 21.832C39.104 21.2347 39.5307 20.7867 40.064 20.488C40.5973 20.1893 41.2 20.04 41.872 20.04C42.4693 20.04 43.0133 20.152 43.504 20.376C43.9947 20.6 44.416 20.9147 44.768 21.32C45.12 21.7147 45.3867 22.1787 45.568 22.712C45.76 23.2453 45.856 23.8267 45.856 24.456V24.792C45.856 25.4213 45.76 26.008 45.568 26.552C45.376 27.096 45.0987 27.576 44.736 27.992C44.3733 28.3973 43.936 28.7173 43.424 28.952C42.9227 29.176 42.3573 29.288 41.728 29.288ZM41.232 27.416C41.712 27.416 42.128 27.2987 42.48 27.064C42.8427 26.8187 43.1253 26.488 43.328 26.072C43.5307 25.656 43.632 25.176 43.632 24.632C43.632 24.0773 43.5307 23.5973 43.328 23.192C43.1253 22.7867 42.8427 22.472 42.48 22.248C42.128 22.024 41.712 21.912 41.232 21.912C40.7947 21.912 40.3893 22.008 40.016 22.2C39.6533 22.392 39.3547 22.6747 39.12 23.048C38.896 23.4213 38.784 23.8693 38.784 24.392V25.032C38.784 25.5333 38.9013 25.96 39.136 26.312C39.3707 26.664 39.6747 26.936 40.048 27.128C40.4213 27.32 40.816 27.416 41.232 27.416ZM47.4915 29V20.312H49.2515V24.04H49.0915C49.0915 23.1653 49.2035 22.4347 49.4275 21.848C49.6515 21.2507 49.9822 20.8027 50.4195 20.504C50.8675 20.1947 51.4222 20.04 52.0835 20.04H52.1795C52.8515 20.04 53.4062 20.1947 53.8435 20.504C54.2915 20.8027 54.6222 21.2507 54.8355 21.848C55.0595 22.4347 55.1715 23.1653 55.1715 24.04H54.6115C54.6115 23.1653 54.7235 22.4347 54.9475 21.848C55.1822 21.2507 55.5182 20.8027 55.9555 20.504C56.4035 20.1947 56.9582 20.04 57.6195 20.04H57.7155C58.3875 20.04 58.9475 20.1947 59.3955 20.504C59.8435 20.8027 60.1795 21.2507 60.4035 21.848C60.6382 22.4347 60.7555 23.1653 60.7555 24.04V29H58.5315V23.832C58.5315 23.288 58.3928 22.856 58.1155 22.536C57.8382 22.2053 57.4435 22.04 56.9315 22.04C56.4195 22.04 56.0088 22.2107 55.6995 22.552C55.3902 22.8827 55.2355 23.3307 55.2355 23.896V29H53.0115V23.832C53.0115 23.288 52.8728 22.856 52.5955 22.536C52.3182 22.2053 51.9235 22.04 51.4115 22.04C50.8995 22.04 50.4888 22.2107 50.1795 22.552C49.8702 22.8827 49.7155 23.3307 49.7155 23.896V29H47.4915ZM63.2281 29V20.312H65.4521V29H63.2281ZM62.0121 21.976V20.312H65.4521V21.976H62.0121ZM64.0441 19.272C63.6068 19.272 63.2815 19.16 63.0681 18.936C62.8655 18.7013 62.7641 18.4133 62.7641 18.072C62.7641 17.7093 62.8655 17.416 63.0681 17.192C63.2815 16.968 63.6068 16.856 64.0441 16.856C64.4815 16.856 64.8015 16.968 65.0041 17.192C65.2068 17.416 65.3081 17.7093 65.3081 18.072C65.3081 18.4133 65.2068 18.7013 65.0041 18.936C64.8015 19.16 64.4815 19.272 64.0441 19.272ZM71.4713 29.112C70.6713 29.112 70.0099 29.0107 69.4873 28.808C68.9753 28.5947 68.5913 28.2427 68.3353 27.752C68.0793 27.2507 67.9513 26.5787 67.9513 25.736L67.9673 17.864H70.0473L70.0313 25.88C70.0313 26.3067 70.1433 26.6373 70.3673 26.872C70.6019 27.096 70.9326 27.208 71.3593 27.208H72.7193V29.112H71.4713ZM66.5753 21.944V20.312H72.7193V21.944H66.5753ZM76.423 29L80.407 17.32H84.119L88.215 29H85.879L82.407 18.872L83.223 19.224H81.223L82.055 18.872L78.695 29H76.423ZM79.207 25.896L79.927 23.976H84.663L85.367 25.896H79.207ZM89.454 29V20.312H91.214V24.04H91.054C91.054 23.1547 91.1713 22.4187 91.406 21.832C91.6407 21.2347 91.9873 20.7867 92.446 20.488C92.9153 20.1893 93.4967 20.04 94.19 20.04H94.286C95.3207 20.04 96.1047 20.376 96.638 21.048C97.1713 21.7093 97.438 22.7013 97.438 24.024V29H95.214V23.832C95.214 23.2987 95.0593 22.8667 94.75 22.536C94.4513 22.2053 94.0353 22.04 93.502 22.04C92.958 22.04 92.5153 22.2107 92.174 22.552C91.8433 22.8827 91.678 23.3307 91.678 23.896V29H89.454ZM103.685 29.304C102.917 29.304 102.24 29.1813 101.653 28.936C101.066 28.6907 100.57 28.36 100.165 27.944C99.7597 27.5173 99.4503 27.0373 99.237 26.504C99.0343 25.9707 98.933 25.416 98.933 24.84V24.504C98.933 23.9067 99.0397 23.3413 99.253 22.808C99.477 22.264 99.7917 21.784 100.197 21.368C100.613 20.9413 101.114 20.6107 101.701 20.376C102.288 20.1307 102.949 20.008 103.685 20.008C104.421 20.008 105.082 20.1307 105.669 20.376C106.256 20.6107 106.752 20.9413 107.157 21.368C107.573 21.784 107.888 22.264 108.101 22.808C108.314 23.3413 108.421 23.9067 108.421 24.504V24.84C108.421 25.416 108.314 25.9707 108.101 26.504C107.898 27.0373 107.594 27.5173 107.189 27.944C106.784 28.36 106.288 28.6907 105.701 28.936C105.114 29.1813 104.442 29.304 103.685 29.304ZM103.685 27.4C104.229 27.4 104.688 27.2827 105.061 27.048C105.434 26.8027 105.717 26.4773 105.909 26.072C106.101 25.656 106.197 25.1867 106.197 24.664C106.197 24.1307 106.096 23.6613 105.893 23.256C105.701 22.84 105.413 22.5147 105.029 22.28C104.656 22.0347 104.208 21.912 103.685 21.912C103.162 21.912 102.709 22.0347 102.325 22.28C101.952 22.5147 101.664 22.84 101.461 23.256C101.258 23.6613 101.157 24.1307 101.157 24.664C101.157 25.1867 101.253 25.656 101.445 26.072C101.648 26.4773 101.936 26.8027 102.309 27.048C102.682 27.2827 103.141 27.4 103.685 27.4ZM113.824 29.112C113.024 29.112 112.363 29.0107 111.84 28.808C111.328 28.5947 110.944 28.2427 110.688 27.752C110.432 27.2507 110.304 26.5787 110.304 25.736L110.32 17.864H112.4L112.384 25.88C112.384 26.3067 112.496 26.6373 112.72 26.872C112.955 27.096 113.286 27.208 113.712 27.208H115.072V29.112H113.824ZM108.928 21.944V20.312H115.072V21.944H108.928ZM116.619 29V17.32H118.843V24.136H118.459C118.459 23.2613 118.571 22.52 118.795 21.912C119.019 21.304 119.35 20.84 119.787 20.52C120.235 20.2 120.8 20.04 121.483 20.04H121.579C122.571 20.04 123.323 20.3813 123.835 21.064C124.347 21.7467 124.603 22.7387 124.603 24.04V29H122.379V23.832C122.379 23.2773 122.219 22.84 121.899 22.52C121.59 22.2 121.179 22.04 120.667 22.04C120.123 22.04 119.68 22.2213 119.339 22.584C119.008 22.936 118.843 23.4 118.843 23.976V29H116.619ZM130.562 29.304C129.815 29.304 129.159 29.176 128.594 28.92C128.039 28.664 127.575 28.3227 127.202 27.896C126.839 27.4587 126.562 26.9733 126.37 26.44C126.189 25.9067 126.098 25.3627 126.098 24.808V24.504C126.098 23.928 126.189 23.3733 126.37 22.84C126.562 22.296 126.839 21.816 127.202 21.4C127.575 20.9733 128.034 20.6373 128.578 20.392C129.122 20.136 129.751 20.008 130.466 20.008C131.405 20.008 132.189 20.216 132.818 20.632C133.458 21.0373 133.938 21.576 134.258 22.248C134.578 22.9093 134.738 23.624 134.738 24.392V25.192H127.042V23.832H133.346L132.658 24.504C132.658 23.9493 132.578 23.4747 132.418 23.08C132.258 22.6853 132.013 22.3813 131.682 22.168C131.362 21.9547 130.957 21.848 130.466 21.848C129.975 21.848 129.559 21.96 129.218 22.184C128.877 22.408 128.615 22.7333 128.434 23.16C128.263 23.576 128.178 24.0773 128.178 24.664C128.178 25.208 128.263 25.6933 128.434 26.12C128.605 26.536 128.866 26.8667 129.218 27.112C129.57 27.3467 130.018 27.464 130.562 27.464C131.106 27.464 131.549 27.3573 131.89 27.144C132.231 26.92 132.45 26.648 132.546 26.328H134.594C134.466 26.9253 134.221 27.448 133.858 27.896C133.495 28.344 133.031 28.6907 132.466 28.936C131.911 29.1813 131.277 29.304 130.562 29.304ZM136.276 29V20.312H138.036V23.992H137.988C137.988 22.744 138.255 21.8 138.788 21.16C139.321 20.52 140.105 20.2 141.14 20.2H141.46V22.136H140.852C140.105 22.136 139.524 22.3387 139.108 22.744C138.703 23.1387 138.5 23.7147 138.5 24.472V29H136.276Z" fill="white"/>
</g>
</g>
<defs>
<filter id="filter0_d_391_2785" x="0" y="0" width="159" height="50" filterUnits="userSpaceOnUse" color-interpolation-filters="sRGB">
<feFlood flood-opacity="0" result="BackgroundImageFix"/>
<feColorMatrix in="SourceAlpha" type="matrix" values="0 0 0 0 0 0 0 0 0 0 0 0 0 0 0 0 0 0 127 0" result="hardAlpha"/>
<feOffset dx="2" dy="2"/>
<feComposite in2="hardAlpha" operator="out"/>
<feColorMatrix type="matrix" values="0 0 0 0 0 0 0 0 0 0 0 0 0 0 0 0 0 0 0.06 0"/>
<feBlend mode="normal" in2="BackgroundImageFix" result="effect1_dropShadow_391_2785"/>
<feBlend mode="normal" in="SourceGraphic" in2="effect1_dropShadow_391_2785" result="shape"/>
</filter>
<filter id="filter1_d_391_2785" x="15" y="14" width="129" height="22" filterUnits="userSpaceOnUse" color-interpolation-filters="sRGB">
<feFlood flood-opacity="0" result="BackgroundImageFix"/>
<feColorMatrix in="SourceAlpha" type="matrix" values="0 0 0 0 0 0 0 0 0 0 0 0 0 0 0 0 0 0 127 0" result="hardAlpha"/>
<feOffset dx="2" dy="2"/>
<feComposite in2="hardAlpha" operator="out"/>
<feColorMatrix type="matrix" values="0 0 0 0 0 0 0 0 0 0 0 0 0 0 0 0 0 0 0.06 0"/>
<feBlend mode="normal" in2="BackgroundImageFix" result="effect1_dropShadow_391_2785"/>
<feBlend mode="normal" in="SourceGraphic" in2="effect1_dropShadow_391_2785" result="shape"/>
</filter>
<linearGradient id="paint0_linear_391_2785" x1="1.19149" y1="1.19046" x2="177.505" y2="56.6334" gradientUnits="userSpaceOnUse">
<stop stop-color="#E65C00"/>
<stop offset="1" stop-color="#FF8C42"/>
</linearGradient>
</defs>
</svg>
