<svg width="159" height="50" viewBox="0 0 159 50" fill="none" xmlns="http://www.w3.org/2000/svg">
<g filter="url(#filter0_d_65_2159)">
<path d="M0.456105 11.9447C0.805192 5.82256 5.81968 1.07678 11.9503 0.941654C27.7838 0.592665 57.7182 0 78.4043 0C99.1071 0 129.169 0.593629 145.048 0.942504C151.179 1.0772 156.195 5.82317 156.544 11.9458C156.789 16.2371 157 21.0789 157 25C157 28.5592 156.826 32.5846 156.611 36.1995C156.25 42.2616 151.259 46.9209 145.188 47.0544C129.345 47.4029 99.1678 48 78.4043 48C57.6573 48 27.6076 47.4038 11.8109 47.0553C5.74003 46.9213 0.750104 42.2622 0.389341 36.2006C0.174177 32.5853 0 28.5595 0 25C0 21.0786 0.211398 16.2363 0.456105 11.9447Z" fill="url(#paint0_linear_65_2159)"/>
<g filter="url(#filter1_d_65_2159)">
<path d="M54.424 29.304C53.3893 29.304 52.5147 29.1387 51.8 28.808C51.096 28.4773 50.5573 28.024 50.184 27.448C49.8107 26.8613 49.624 26.2 49.624 25.464H51.848C51.848 25.7733 51.9333 26.0773 52.104 26.376C52.2747 26.664 52.5467 26.8987 52.92 27.08C53.304 27.2613 53.8053 27.352 54.424 27.352C54.9787 27.352 55.4427 27.272 55.816 27.112C56.1893 26.952 56.4667 26.744 56.648 26.488C56.8293 26.2213 56.92 25.9227 56.92 25.592C56.92 25.176 56.744 24.8453 56.392 24.6C56.04 24.344 55.496 24.184 54.76 24.12L53.736 24.04C52.616 23.944 51.72 23.5973 51.048 23C50.3867 22.392 50.056 21.592 50.056 20.6C50.056 19.8533 50.232 19.2133 50.584 18.68C50.936 18.136 51.4267 17.72 52.056 17.432C52.696 17.1333 53.4427 16.984 54.296 16.984C55.1813 16.984 55.944 17.1387 56.584 17.448C57.224 17.7573 57.72 18.1947 58.072 18.76C58.424 19.3147 58.6 19.9707 58.6 20.728H56.376C56.376 20.408 56.296 20.1147 56.136 19.848C55.9867 19.5707 55.7573 19.352 55.448 19.192C55.1493 19.0213 54.7653 18.936 54.296 18.936C53.848 18.936 53.4747 19.0107 53.176 19.16C52.8773 19.3093 52.6533 19.512 52.504 19.768C52.3547 20.024 52.28 20.3013 52.28 20.6C52.28 20.9627 52.4133 21.2827 52.68 21.56C52.9467 21.8267 53.368 21.9813 53.944 22.024L54.968 22.12C55.8 22.184 56.5307 22.36 57.16 22.648C57.7893 22.936 58.2747 23.3253 58.616 23.816C58.968 24.3067 59.144 24.8987 59.144 25.592C59.144 26.328 58.952 26.9787 58.568 27.544C58.184 28.0987 57.6347 28.5307 56.92 28.84C56.216 29.1493 55.384 29.304 54.424 29.304ZM63.6853 29.272C62.6826 29.272 61.9039 28.9413 61.3493 28.28C60.8053 27.6187 60.5333 26.6373 60.5333 25.336V20.296H62.7573V25.528C62.7573 26.0613 62.9066 26.488 63.2053 26.808C63.5039 27.1173 63.9093 27.272 64.4213 27.272C64.9333 27.272 65.3493 27.1067 65.6693 26.776C65.9999 26.4453 66.1653 25.9973 66.1653 25.432V20.296H68.3893V29H66.6293V25.304H66.8053C66.8053 26.1787 66.6933 26.9093 66.4693 27.496C66.2453 28.0827 65.9093 28.5253 65.4613 28.824C65.0133 29.1227 64.4533 29.272 63.7813 29.272H63.6853ZM75.728 29.288C75.0133 29.288 74.384 29.1387 73.84 28.84C73.296 28.5307 72.8693 28.0827 72.56 27.496C72.2507 26.9093 72.08 26.2 72.048 25.368H72.384V29H70.624V17.32H72.848V23.16L72.256 24.072C72.2987 23.176 72.4747 22.4293 72.784 21.832C73.104 21.2347 73.5307 20.7867 74.064 20.488C74.5973 20.1893 75.2 20.04 75.872 20.04C76.4693 20.04 77.0133 20.152 77.504 20.376C77.9947 20.6 78.416 20.9147 78.768 21.32C79.12 21.7147 79.3867 22.1787 79.568 22.712C79.76 23.2453 79.856 23.8267 79.856 24.456V24.792C79.856 25.4213 79.76 26.008 79.568 26.552C79.376 27.096 79.0987 27.576 78.736 27.992C78.3733 28.3973 77.936 28.7173 77.424 28.952C76.9227 29.176 76.3573 29.288 75.728 29.288ZM75.232 27.416C75.712 27.416 76.128 27.2987 76.48 27.064C76.8427 26.8187 77.1253 26.488 77.328 26.072C77.5307 25.656 77.632 25.176 77.632 24.632C77.632 24.0773 77.5307 23.5973 77.328 23.192C77.1253 22.7867 76.8427 22.472 76.48 22.248C76.128 22.024 75.712 21.912 75.232 21.912C74.7947 21.912 74.3893 22.008 74.016 22.2C73.6533 22.392 73.3547 22.6747 73.12 23.048C72.896 23.4213 72.784 23.8693 72.784 24.392V25.032C72.784 25.5333 72.9013 25.96 73.136 26.312C73.3707 26.664 73.6747 26.936 74.048 27.128C74.4213 27.32 74.816 27.416 75.232 27.416ZM81.4915 29V20.312H83.2515V24.04H83.0915C83.0915 23.1653 83.2035 22.4347 83.4275 21.848C83.6515 21.2507 83.9822 20.8027 84.4195 20.504C84.8675 20.1947 85.4222 20.04 86.0835 20.04H86.1795C86.8515 20.04 87.4062 20.1947 87.8435 20.504C88.2915 20.8027 88.6222 21.2507 88.8355 21.848C89.0595 22.4347 89.1715 23.1653 89.1715 24.04H88.6115C88.6115 23.1653 88.7235 22.4347 88.9475 21.848C89.1822 21.2507 89.5182 20.8027 89.9555 20.504C90.4035 20.1947 90.9582 20.04 91.6195 20.04H91.7155C92.3875 20.04 92.9475 20.1947 93.3955 20.504C93.8435 20.8027 94.1795 21.2507 94.4035 21.848C94.6382 22.4347 94.7555 23.1653 94.7555 24.04V29H92.5315V23.832C92.5315 23.288 92.3928 22.856 92.1155 22.536C91.8382 22.2053 91.4435 22.04 90.9315 22.04C90.4195 22.04 90.0088 22.2107 89.6995 22.552C89.3902 22.8827 89.2355 23.3307 89.2355 23.896V29H87.0115V23.832C87.0115 23.288 86.8728 22.856 86.5955 22.536C86.3182 22.2053 85.9235 22.04 85.4115 22.04C84.8995 22.04 84.4888 22.2107 84.1795 22.552C83.8702 22.8827 83.7155 23.3307 83.7155 23.896V29H81.4915ZM97.2281 29V20.312H99.4521V29H97.2281ZM96.0121 21.976V20.312H99.4521V21.976H96.0121ZM98.0441 19.272C97.6068 19.272 97.2815 19.16 97.0681 18.936C96.8655 18.7013 96.7641 18.4133 96.7641 18.072C96.7641 17.7093 96.8655 17.416 97.0681 17.192C97.2815 16.968 97.6068 16.856 98.0441 16.856C98.4815 16.856 98.8015 16.968 99.0041 17.192C99.2068 17.416 99.3081 17.7093 99.3081 18.072C99.3081 18.4133 99.2068 18.7013 99.0041 18.936C98.8015 19.16 98.4815 19.272 98.0441 19.272ZM105.471 29.112C104.671 29.112 104.01 29.0107 103.487 28.808C102.975 28.5947 102.591 28.2427 102.335 27.752C102.079 27.2507 101.951 26.5787 101.951 25.736L101.967 17.864H104.047L104.031 25.88C104.031 26.3067 104.143 26.6373 104.367 26.872C104.602 27.096 104.933 27.208 105.359 27.208H106.719V29.112H105.471ZM100.575 21.944V20.312H106.719V21.944H100.575Z" fill="white"/>
</g>
</g>
<defs>
<filter id="filter0_d_65_2159" x="0" y="0" width="159" height="50" filterUnits="userSpaceOnUse" color-interpolation-filters="sRGB">
<feFlood flood-opacity="0" result="BackgroundImageFix"/>
<feColorMatrix in="SourceAlpha" type="matrix" values="0 0 0 0 0 0 0 0 0 0 0 0 0 0 0 0 0 0 127 0" result="hardAlpha"/>
<feOffset dx="2" dy="2"/>
<feComposite in2="hardAlpha" operator="out"/>
<feColorMatrix type="matrix" values="0 0 0 0 0 0 0 0 0 0 0 0 0 0 0 0 0 0 0.06 0"/>
<feBlend mode="normal" in2="BackgroundImageFix" result="effect1_dropShadow_65_2159"/>
<feBlend mode="normal" in="SourceGraphic" in2="effect1_dropShadow_65_2159" result="shape"/>
</filter>
<filter id="filter1_d_65_2159" x="49" y="14" width="61" height="22" filterUnits="userSpaceOnUse" color-interpolation-filters="sRGB">
<feFlood flood-opacity="0" result="BackgroundImageFix"/>
<feColorMatrix in="SourceAlpha" type="matrix" values="0 0 0 0 0 0 0 0 0 0 0 0 0 0 0 0 0 0 127 0" result="hardAlpha"/>
<feOffset dx="2" dy="2"/>
<feComposite in2="hardAlpha" operator="out"/>
<feColorMatrix type="matrix" values="0 0 0 0 0 0 0 0 0 0 0 0 0 0 0 0 0 0 0.06 0"/>
<feBlend mode="normal" in2="BackgroundImageFix" result="effect1_dropShadow_65_2159"/>
<feBlend mode="normal" in="SourceGraphic" in2="effect1_dropShadow_65_2159" result="shape"/>
</filter>
<linearGradient id="paint0_linear_65_2159" x1="1.19149" y1="1.19046" x2="177.505" y2="56.6334" gradientUnits="userSpaceOnUse">
<stop stop-color="#E65C00"/>
<stop offset="1" stop-color="#FF8C42"/>
</linearGradient>
</defs>
</svg>
