<svg width="56" height="56" viewBox="0 0 56 56" fill="none" xmlns="http://www.w3.org/2000/svg">
<g filter="url(#filter0_d_314_471)">
<path d="M0.436051 11.5568C0.712128 5.51921 5.51921 0.712128 11.5568 0.436051C16.5202 0.209089 22.3537 0 27 0C31.6463 0 37.4798 0.20909 42.4432 0.436051C48.4808 0.712128 53.2879 5.51921 53.5639 11.5568C53.7909 16.5202 54 22.3537 54 27C54 31.6463 53.7909 37.4798 53.5639 42.4432C53.2879 48.4808 48.4808 53.2879 42.4432 53.5639C37.4798 53.7909 31.6463 54 27 54C22.3537 54 16.5202 53.7909 11.5568 53.5639C5.51921 53.2879 0.712128 48.4808 0.436051 42.4432C0.209089 37.4798 0 31.6463 0 27C0 22.3537 0.20909 16.5202 0.436051 11.5568Z" fill="url(#paint0_linear_314_471)"/>
</g>
<path d="M26.42 34.25H23.69C21 34.25 19.75 33 19.75 30.31V27.58C19.75 24.9 21 23.65 23.69 23.65H26.42C29.1 23.65 30.36 24.9 30.36 27.59V30.32C30.35 33 29.1 34.25 26.42 34.25ZM23.69 25.15C21.82 25.15 21.25 25.72 21.25 27.59V30.32C21.25 32.19 21.82 32.76 23.69 32.76H26.42C28.29 32.76 28.86 32.19 28.86 30.32V27.59C28.86 25.72 28.29 25.15 26.42 25.15H23.69Z" fill="white"/>
<path d="M30.3104 30.35H29.6004C29.1904 30.35 28.8504 30.01 28.8504 29.6V27.58C28.8504 25.71 28.2804 25.14 26.4104 25.14H24.4004C23.9904 25.14 23.6504 24.8 23.6504 24.39V23.69C23.6504 21.01 24.9004 19.75 27.5904 19.75H30.3204C33.0004 19.75 34.2604 21 34.2604 23.69V26.42C34.2504 29.1 33.0004 30.35 30.3104 30.35ZM25.1504 23.65H26.4204C29.1004 23.65 30.3604 24.9 30.3604 27.59V28.86C32.2004 28.85 32.7604 28.28 32.7604 26.42V23.69C32.7604 21.82 32.1904 21.25 30.3204 21.25H27.5904C25.7304 21.25 25.1604 21.81 25.1504 23.65Z" fill="white"/>
<path d="M30.0002 37.75C29.7302 37.75 29.4802 37.6 29.3502 37.37C29.2202 37.13 29.2202 36.85 29.3602 36.61L30.4102 34.86C30.6202 34.5 31.0802 34.39 31.4402 34.6C31.8002 34.81 31.9102 35.27 31.7002 35.63L31.4302 36.08C34.1902 35.43 36.2602 32.95 36.2602 29.99C36.2602 29.58 36.6002 29.24 37.0102 29.24C37.4202 29.24 37.7602 29.58 37.7602 29.99C37.7502 34.27 34.2702 37.75 30.0002 37.75Z" fill="white"/>
<path d="M17 24.75C16.59 24.75 16.25 24.41 16.25 24C16.25 19.73 19.73 16.25 24 16.25C24.27 16.25 24.52 16.4 24.65 16.63C24.78 16.87 24.78 17.15 24.64 17.39L23.59 19.14C23.38 19.49 22.92 19.61 22.56 19.39C22.21 19.18 22.09 18.72 22.31 18.36L22.58 17.91C19.81 18.56 17.75 21.04 17.75 24C17.75 24.41 17.41 24.75 17 24.75Z" fill="white"/>
<defs>
<filter id="filter0_d_314_471" x="0" y="0" width="56" height="56" filterUnits="userSpaceOnUse" color-interpolation-filters="sRGB">
<feFlood flood-opacity="0" result="BackgroundImageFix"/>
<feColorMatrix in="SourceAlpha" type="matrix" values="0 0 0 0 0 0 0 0 0 0 0 0 0 0 0 0 0 0 127 0" result="hardAlpha"/>
<feOffset dx="2" dy="2"/>
<feComposite in2="hardAlpha" operator="out"/>
<feColorMatrix type="matrix" values="0 0 0 0 0 0 0 0 0 0 0 0 0 0 0 0 0 0 0.06 0"/>
<feBlend mode="normal" in2="BackgroundImageFix" result="effect1_dropShadow_314_471"/>
<feBlend mode="normal" in="SourceGraphic" in2="effect1_dropShadow_314_471" result="shape"/>
</filter>
<linearGradient id="paint0_linear_314_471" x1="1.39214" y1="2.28966" x2="64.5806" y2="8.32612" gradientUnits="userSpaceOnUse">
<stop stop-color="#E65C00"/>
<stop offset="1" stop-color="#FF8C42"/>
</linearGradient>
</defs>
</svg>
