<svg width="64" height="64" viewBox="0 0 64 64" fill="none" xmlns="http://www.w3.org/2000/svg">
<path d="M31.9997 5.33334C17.3063 5.33334 5.33301 17.3067 5.33301 32C5.33301 46.6933 17.3063 58.6667 31.9997 58.6667C46.693 58.6667 58.6663 46.6933 58.6663 32C58.6663 17.3067 46.693 5.33334 31.9997 5.33334ZM44.7463 25.8667L29.6263 40.9867C29.253 41.36 28.7463 41.5733 28.213 41.5733C27.6797 41.5733 27.173 41.36 26.7997 40.9867L19.253 33.44C18.4797 32.6667 18.4797 31.3867 19.253 30.6133C20.0263 29.84 21.3063 29.84 22.0797 30.6133L28.213 36.7467L41.9197 23.04C42.693 22.2667 43.973 22.2667 44.7463 23.04C45.5197 23.8133 45.5197 25.0667 44.7463 25.8667Z" fill="#0AA537"/>
</svg>
