<svg width="140" height="26" viewBox="0 0 140 26" fill="none" xmlns="http://www.w3.org/2000/svg">
<g filter="url(#filter0_d_62_96)">
<path d="M4.064 17L0.336 5.32H2.688L5.776 15.432L5.104 15.112H6.832L6.144 15.432L8.992 5.32H11.264L7.808 17H4.064ZM12.7663 17V8.312H14.9903V17H12.7663ZM11.5503 9.976V8.312H14.9903V9.976H11.5503ZM13.5823 7.272C13.1449 7.272 12.8196 7.16 12.6063 6.936C12.4036 6.70133 12.3023 6.41333 12.3023 6.072C12.3023 5.70933 12.4036 5.416 12.6063 5.192C12.8196 4.968 13.1449 4.856 13.5823 4.856C14.0196 4.856 14.3396 4.968 14.5423 5.192C14.7449 5.416 14.8463 5.70933 14.8463 6.072C14.8463 6.41333 14.7449 6.70133 14.5423 6.936C14.3396 7.16 14.0196 7.272 13.5823 7.272ZM21.1214 17.304C20.3747 17.304 19.7187 17.176 19.1534 16.92C18.5987 16.664 18.1347 16.3227 17.7614 15.896C17.3987 15.4587 17.1214 14.9733 16.9294 14.44C16.748 13.9067 16.6574 13.3627 16.6574 12.808V12.504C16.6574 11.928 16.748 11.3733 16.9294 10.84C17.1214 10.296 17.3987 9.816 17.7614 9.4C18.1347 8.97333 18.5934 8.63733 19.1374 8.392C19.6814 8.136 20.3107 8.008 21.0254 8.008C21.964 8.008 22.748 8.216 23.3774 8.632C24.0174 9.03733 24.4974 9.576 24.8174 10.248C25.1374 10.9093 25.2974 11.624 25.2974 12.392V13.192H17.6014V11.832H23.9054L23.2174 12.504C23.2174 11.9493 23.1374 11.4747 22.9774 11.08C22.8174 10.6853 22.572 10.3813 22.2414 10.168C21.9214 9.95467 21.516 9.848 21.0254 9.848C20.5347 9.848 20.1187 9.96 19.7774 10.184C19.436 10.408 19.1747 10.7333 18.9934 11.16C18.8227 11.576 18.7374 12.0773 18.7374 12.664C18.7374 13.208 18.8227 13.6933 18.9934 14.12C19.164 14.536 19.4254 14.8667 19.7774 15.112C20.1294 15.3467 20.5774 15.464 21.1214 15.464C21.6654 15.464 22.108 15.3573 22.4494 15.144C22.7907 14.92 23.0094 14.648 23.1054 14.328H25.1534C25.0254 14.9253 24.78 15.448 24.4174 15.896C24.0547 16.344 23.5907 16.6907 23.0254 16.936C22.4707 17.1813 21.836 17.304 21.1214 17.304ZM29.7331 17L31.3811 8.6H33.9411L35.8451 17H34.0851L32.1491 8.648H33.0771L31.3651 17H29.7331ZM29.0771 17L29.0611 15.176H30.8371V17H29.0771ZM28.1811 17L25.8131 8.312H27.9731L30.2291 17H28.1811ZM34.6451 17V15.176H36.4211L36.4051 17H34.6451ZM35.3491 17L37.3491 8.312H39.3651L37.2691 17H35.3491ZM46.0576 13.416V11.448H48.3296C48.7883 11.448 49.1723 11.3573 49.4816 11.176C49.8016 10.9947 50.0416 10.744 50.2016 10.424C50.3723 10.104 50.4576 9.736 50.4576 9.32C50.4576 8.904 50.3723 8.536 50.2016 8.216C50.0416 7.896 49.8016 7.65067 49.4816 7.48C49.1723 7.29867 48.7883 7.208 48.3296 7.208H46.0576V5.24H48.1376C49.119 5.24 49.951 5.4 50.6336 5.72C51.327 6.04 51.855 6.49867 52.2176 7.096C52.5803 7.68267 52.7616 8.38133 52.7616 9.192V9.448C52.7616 10.2587 52.5803 10.9627 52.2176 11.56C51.855 12.1467 51.327 12.6053 50.6336 12.936C49.951 13.256 49.119 13.416 48.1376 13.416H46.0576ZM44.1056 17V5.24H46.3776V17H44.1056ZM54.2034 17V8.312H55.9634V11.992H55.9154C55.9154 10.744 56.182 9.8 56.7154 9.16C57.2487 8.52 58.0327 8.2 59.0674 8.2H59.3874V10.136H58.7794C58.0327 10.136 57.4514 10.3387 57.0354 10.744C56.63 11.1387 56.4274 11.7147 56.4274 12.472V17H54.2034ZM64.6687 17.304C63.9007 17.304 63.2234 17.1813 62.6367 16.936C62.0501 16.6907 61.5541 16.36 61.1487 15.944C60.7434 15.5173 60.4341 15.0373 60.2207 14.504C60.0181 13.9707 59.9167 13.416 59.9167 12.84V12.504C59.9167 11.9067 60.0234 11.3413 60.2367 10.808C60.4607 10.264 60.7754 9.784 61.1807 9.368C61.5967 8.94133 62.0981 8.61067 62.6847 8.376C63.2714 8.13067 63.9327 8.008 64.6687 8.008C65.4047 8.008 66.0661 8.13067 66.6527 8.376C67.2394 8.61067 67.7354 8.94133 68.1407 9.368C68.5567 9.784 68.8714 10.264 69.0847 10.808C69.2981 11.3413 69.4047 11.9067 69.4047 12.504V12.84C69.4047 13.416 69.2981 13.9707 69.0847 14.504C68.8821 15.0373 68.5781 15.5173 68.1727 15.944C67.7674 16.36 67.2714 16.6907 66.6847 16.936C66.0981 17.1813 65.4261 17.304 64.6687 17.304ZM64.6687 15.4C65.2127 15.4 65.6714 15.2827 66.0447 15.048C66.4181 14.8027 66.7007 14.4773 66.8927 14.072C67.0847 13.656 67.1807 13.1867 67.1807 12.664C67.1807 12.1307 67.0794 11.6613 66.8767 11.256C66.6847 10.84 66.3967 10.5147 66.0127 10.28C65.6394 10.0347 65.1914 9.912 64.6687 9.912C64.1461 9.912 63.6927 10.0347 63.3087 10.28C62.9354 10.5147 62.6474 10.84 62.4447 11.256C62.2421 11.6613 62.1407 12.1307 62.1407 12.664C62.1407 13.1867 62.2367 13.656 62.4287 14.072C62.6314 14.4773 62.9194 14.8027 63.2927 15.048C63.6661 15.2827 64.1247 15.4 64.6687 15.4ZM74.6321 17.288C74.0241 17.288 73.4641 17.176 72.9521 16.952C72.4401 16.728 71.9975 16.4133 71.6241 16.008C71.2508 15.6027 70.9628 15.1333 70.7601 14.6C70.5575 14.056 70.4561 13.4693 70.4561 12.84V12.504C70.4561 11.8853 70.5521 11.304 70.7441 10.76C70.9468 10.216 71.2241 9.74133 71.5761 9.336C71.9388 8.93067 72.3708 8.616 72.8721 8.392C73.3841 8.15733 73.9495 8.04 74.5681 8.04C75.2508 8.04 75.8481 8.18933 76.3601 8.488C76.8828 8.776 77.2988 9.21333 77.6081 9.8C77.9175 10.3867 78.0881 11.1227 78.1201 12.008L77.4641 11.24V5.32H79.6881V17H77.9281V13.304H78.3121C78.2801 14.1893 78.0988 14.9307 77.7681 15.528C77.4375 16.1147 77.0001 16.5573 76.4561 16.856C75.9228 17.144 75.3148 17.288 74.6321 17.288ZM75.1281 15.416C75.5655 15.416 75.9655 15.32 76.3281 15.128C76.6908 14.9253 76.9788 14.6373 77.1921 14.264C77.4161 13.88 77.5281 13.432 77.5281 12.92V12.28C77.5281 11.768 77.4161 11.3413 77.1921 11C76.9681 10.648 76.6748 10.3813 76.3121 10.2C75.9495 10.008 75.5548 9.912 75.1281 9.912C74.6481 9.912 74.2215 10.0293 73.8481 10.264C73.4855 10.488 73.1975 10.808 72.9841 11.224C72.7815 11.64 72.6801 12.1253 72.6801 12.68C72.6801 13.2347 72.7868 13.72 73.0001 14.136C73.2135 14.5413 73.5015 14.856 73.8641 15.08C74.2375 15.304 74.6588 15.416 75.1281 15.416ZM84.8596 17.272C83.857 17.272 83.0783 16.9413 82.5236 16.28C81.9796 15.6187 81.7076 14.6373 81.7076 13.336V8.296H83.9316V13.528C83.9316 14.0613 84.081 14.488 84.3796 14.808C84.6783 15.1173 85.0836 15.272 85.5956 15.272C86.1076 15.272 86.5236 15.1067 86.8436 14.776C87.1743 14.4453 87.3396 13.9973 87.3396 13.432V8.296H89.5636V17H87.8036V13.304H87.9796C87.9796 14.1787 87.8676 14.9093 87.6436 15.496C87.4196 16.0827 87.0836 16.5253 86.6356 16.824C86.1876 17.1227 85.6276 17.272 84.9556 17.272H84.8596ZM95.6544 17.304C94.897 17.304 94.241 17.176 93.6864 16.92C93.1424 16.664 92.6837 16.3227 92.3104 15.896C91.9477 15.4693 91.6757 14.9893 91.4944 14.456C91.313 13.9227 91.2224 13.3787 91.2224 12.824V12.52C91.2224 11.9333 91.313 11.3733 91.4944 10.84C91.6864 10.296 91.969 9.816 92.3424 9.4C92.7157 8.97333 93.1744 8.63733 93.7184 8.392C94.273 8.136 94.913 8.008 95.6384 8.008C96.3957 8.008 97.073 8.15733 97.6704 8.456C98.2677 8.744 98.7424 9.14933 99.0944 9.672C99.457 10.1947 99.6597 10.8027 99.7024 11.496H97.5424C97.489 11.048 97.297 10.6747 96.9664 10.376C96.6464 10.0773 96.2037 9.928 95.6384 9.928C95.1477 9.928 94.737 10.0453 94.4064 10.28C94.0864 10.5147 93.8464 10.84 93.6864 11.256C93.5264 11.6613 93.4464 12.1307 93.4464 12.664C93.4464 13.176 93.521 13.64 93.6704 14.056C93.8304 14.472 94.0704 14.7973 94.3904 15.032C94.721 15.2667 95.1424 15.384 95.6544 15.384C96.0384 15.384 96.369 15.3147 96.6464 15.176C96.9237 15.0373 97.1424 14.8453 97.3024 14.6C97.473 14.3547 97.5797 14.0773 97.6224 13.768H99.7824C99.7397 14.472 99.5317 15.0907 99.1584 15.624C98.7957 16.1467 98.3104 16.5573 97.7024 16.856C97.105 17.1547 96.4224 17.304 95.6544 17.304ZM105.02 17.112C104.22 17.112 103.559 17.0107 103.036 16.808C102.524 16.5947 102.14 16.2427 101.884 15.752C101.628 15.2507 101.5 14.5787 101.5 13.736L101.516 5.864H103.596L103.58 13.88C103.58 14.3067 103.692 14.6373 103.916 14.872C104.151 15.096 104.481 15.208 104.908 15.208H106.268V17.112H105.02ZM100.124 9.944V8.312H106.268V9.944H100.124ZM110.904 17.272C109.709 17.272 108.771 17.0213 108.088 16.52C107.416 16.008 107.064 15.304 107.032 14.408H109.032C109.064 14.7067 109.229 14.9787 109.528 15.224C109.827 15.4693 110.296 15.592 110.936 15.592C111.469 15.592 111.891 15.496 112.2 15.304C112.52 15.112 112.68 14.8507 112.68 14.52C112.68 14.232 112.557 14.0027 112.312 13.832C112.077 13.6613 111.672 13.5493 111.096 13.496L110.328 13.416C109.357 13.3093 108.611 13.032 108.088 12.584C107.565 12.136 107.304 11.5387 107.304 10.792C107.304 10.1947 107.453 9.69333 107.752 9.288C108.051 8.88267 108.461 8.57867 108.984 8.376C109.517 8.16267 110.125 8.056 110.808 8.056C111.875 8.056 112.739 8.29067 113.4 8.76C114.061 9.22933 114.408 9.91733 114.44 10.824H112.44C112.419 10.5253 112.269 10.2693 111.992 10.056C111.715 9.84267 111.315 9.736 110.792 9.736C110.323 9.736 109.96 9.82667 109.704 10.008C109.448 10.1893 109.32 10.424 109.32 10.712C109.32 10.9893 109.421 11.2027 109.624 11.352C109.837 11.5013 110.179 11.6027 110.648 11.656L111.416 11.736C112.44 11.8427 113.24 12.1253 113.816 12.584C114.403 13.0427 114.696 13.6613 114.696 14.44C114.696 15.016 114.536 15.5173 114.216 15.944C113.907 16.36 113.469 16.6853 112.904 16.92C112.339 17.1547 111.672 17.272 110.904 17.272Z" fill="url(#paint0_linear_62_96)"/>
<path d="M0 19H115.272V19.8H0V19Z" fill="url(#paint1_linear_62_96)"/>
<path d="M121 17L131 7M131 7H123M131 7V15" stroke="url(#paint2_linear_62_96)" stroke-width="2" stroke-linecap="round" stroke-linejoin="round"/>
</g>
<defs>
<filter id="filter0_d_62_96" x="0" y="0" width="140" height="26" filterUnits="userSpaceOnUse" color-interpolation-filters="sRGB">
<feFlood flood-opacity="0" result="BackgroundImageFix"/>
<feColorMatrix in="SourceAlpha" type="matrix" values="0 0 0 0 0 0 0 0 0 0 0 0 0 0 0 0 0 0 127 0" result="hardAlpha"/>
<feOffset dx="2" dy="2"/>
<feComposite in2="hardAlpha" operator="out"/>
<feColorMatrix type="matrix" values="0 0 0 0 0 0 0 0 0 0 0 0 0 0 0 0 0 0 0.06 0"/>
<feBlend mode="normal" in2="BackgroundImageFix" result="effect1_dropShadow_62_96"/>
<feBlend mode="normal" in="SourceGraphic" in2="effect1_dropShadow_62_96" result="shape"/>
</filter>
<linearGradient id="paint0_linear_62_96" x1="0.897489" y1="2.49603" x2="111.194" y2="65.1965" gradientUnits="userSpaceOnUse">
<stop stop-color="#E65C00"/>
<stop offset="1" stop-color="#FF8C42"/>
</linearGradient>
<linearGradient id="paint1_linear_62_96" x1="0.897489" y1="2.49603" x2="111.194" y2="65.1965" gradientUnits="userSpaceOnUse">
<stop stop-color="#E65C00"/>
<stop offset="1" stop-color="#FF8C42"/>
</linearGradient>
<linearGradient id="paint2_linear_62_96" x1="121.077" y1="7.24801" x2="133.539" y2="8.46938" gradientUnits="userSpaceOnUse">
<stop stop-color="#E65C00"/>
<stop offset="1" stop-color="#FF8C42"/>
</linearGradient>
</defs>
</svg>
