<svg width="56" height="56" viewBox="0 0 56 56" fill="none" xmlns="http://www.w3.org/2000/svg">
<g filter="url(#filter0_d_86_433)">
<path d="M0.436051 11.5568C0.712128 5.51921 5.51921 0.712128 11.5568 0.436051C16.5202 0.209089 22.3537 0 27 0C31.6463 0 37.4798 0.20909 42.4432 0.436051C48.4808 0.712128 53.2879 5.51921 53.5639 11.5568C53.7909 16.5202 54 22.3537 54 27C54 31.6463 53.7909 37.4798 53.5639 42.4432C53.2879 48.4808 48.4808 53.2879 42.4432 53.5639C37.4798 53.7909 31.6463 54 27 54C22.3537 54 16.5202 53.7909 11.5568 53.5639C5.51921 53.2879 0.712128 48.4808 0.436051 42.4432C0.209089 37.4798 0 31.6463 0 27C0 22.3537 0.20909 16.5202 0.436051 11.5568Z" fill="url(#paint0_linear_86_433)"/>
</g>
<path d="M26.9999 31.33C24.6099 31.33 22.6699 29.39 22.6699 27C22.6699 24.61 24.6099 22.67 26.9999 22.67C29.3899 22.67 31.3299 24.61 31.3299 27C31.3299 29.39 29.3899 31.33 26.9999 31.33ZM26.9999 24.17C25.4399 24.17 24.1699 25.44 24.1699 27C24.1699 28.56 25.4399 29.83 26.9999 29.83C28.5599 29.83 29.8299 28.56 29.8299 27C29.8299 25.44 28.5599 24.17 26.9999 24.17Z" fill="white"/>
<path d="M27.0001 36.02C23.2401 36.02 19.6901 33.82 17.2501 30C16.1901 28.35 16.1901 25.66 17.2501 24C19.7001 20.18 23.2501 17.98 27.0001 17.98C30.7501 17.98 34.3001 20.18 36.7401 24C37.8001 25.65 37.8001 28.34 36.7401 30C34.3001 33.82 30.7501 36.02 27.0001 36.02ZM27.0001 19.48C23.7701 19.48 20.6801 21.42 18.5201 24.81C17.7701 25.98 17.7701 28.02 18.5201 29.19C20.6801 32.58 23.7701 34.52 27.0001 34.52C30.2301 34.52 33.3201 32.58 35.4801 29.19C36.2301 28.02 36.2301 25.98 35.4801 24.81C33.3201 21.42 30.2301 19.48 27.0001 19.48Z" fill="white"/>
<defs>
<filter id="filter0_d_86_433" x="0" y="0" width="56" height="56" filterUnits="userSpaceOnUse" color-interpolation-filters="sRGB">
<feFlood flood-opacity="0" result="BackgroundImageFix"/>
<feColorMatrix in="SourceAlpha" type="matrix" values="0 0 0 0 0 0 0 0 0 0 0 0 0 0 0 0 0 0 127 0" result="hardAlpha"/>
<feOffset dx="2" dy="2"/>
<feComposite in2="hardAlpha" operator="out"/>
<feColorMatrix type="matrix" values="0 0 0 0 0 0 0 0 0 0 0 0 0 0 0 0 0 0 0.06 0"/>
<feBlend mode="normal" in2="BackgroundImageFix" result="effect1_dropShadow_86_433"/>
<feBlend mode="normal" in="SourceGraphic" in2="effect1_dropShadow_86_433" result="shape"/>
</filter>
<linearGradient id="paint0_linear_86_433" x1="1.39214" y1="2.28966" x2="64.5806" y2="8.32612" gradientUnits="userSpaceOnUse">
<stop stop-color="#E65C00"/>
<stop offset="1" stop-color="#FF8C42"/>
</linearGradient>
</defs>
</svg>
