<svg width="159" height="50" viewBox="0 0 159 50" fill="none" xmlns="http://www.w3.org/2000/svg">
<g filter="url(#filter0_d_62_140)">
<path d="M0.456105 11.9447C0.805192 5.82256 5.81968 1.07678 11.9503 0.941654C27.7838 0.592665 57.7182 0 78.4043 0C99.1071 0 129.169 0.593629 145.048 0.942504C151.179 1.0772 156.195 5.82317 156.544 11.9458C156.789 16.2371 157 21.0789 157 25C157 28.5592 156.826 32.5846 156.611 36.1995C156.25 42.2616 151.259 46.9209 145.188 47.0544C129.345 47.4029 99.1678 48 78.4043 48C57.6573 48 27.6076 47.4038 11.8109 47.0553C5.74003 46.9213 0.750104 42.2622 0.389341 36.2006C0.174177 32.5853 0 28.5595 0 25C0 21.0786 0.211398 16.2363 0.456105 11.9447Z" fill="url(#paint0_linear_62_140)"/>
<path d="M0.456105 11.9447C0.805192 5.82256 5.81968 1.07678 11.9503 0.941654C27.7838 0.592665 57.7182 0 78.4043 0C99.1071 0 129.169 0.593629 145.048 0.942504C151.179 1.0772 156.195 5.82317 156.544 11.9458C156.789 16.2371 157 21.0789 157 25C157 28.5592 156.826 32.5846 156.611 36.1995C156.25 42.2616 151.259 46.9209 145.188 47.0544C129.345 47.4029 99.1678 48 78.4043 48C57.6573 48 27.6076 47.4038 11.8109 47.0553C5.74003 46.9213 0.750104 42.2622 0.389341 36.2006C0.174177 32.5853 0 28.5595 0 25C0 21.0786 0.211398 16.2363 0.456105 11.9447Z" fill="white"/>
<g filter="url(#filter1_d_62_140)">
<path d="M31.288 29L35.272 17.32H38.984L43.08 29H40.744L37.272 18.872L38.088 19.224H36.088L36.92 18.872L33.56 29H31.288ZM34.072 25.896L34.792 23.976H39.528L40.232 25.896H34.072ZM49.423 29.288C48.7083 29.288 48.079 29.1387 47.535 28.84C46.991 28.5307 46.5643 28.0827 46.255 27.496C45.9457 26.9093 45.775 26.2 45.743 25.368H46.079V29H44.319V17.32H46.543V23.16L45.951 24.072C45.9937 23.176 46.1697 22.4293 46.479 21.832C46.799 21.2347 47.2257 20.7867 47.759 20.488C48.2923 20.1893 48.895 20.04 49.567 20.04C50.1643 20.04 50.7083 20.152 51.199 20.376C51.6897 20.6 52.111 20.9147 52.463 21.32C52.815 21.7147 53.0817 22.1787 53.263 22.712C53.455 23.2453 53.551 23.8267 53.551 24.456V24.792C53.551 25.4213 53.455 26.008 53.263 26.552C53.071 27.096 52.7937 27.576 52.431 27.992C52.0683 28.3973 51.631 28.7173 51.119 28.952C50.6177 29.176 50.0523 29.288 49.423 29.288ZM48.927 27.416C49.407 27.416 49.823 27.2987 50.175 27.064C50.5377 26.8187 50.8203 26.488 51.023 26.072C51.2257 25.656 51.327 25.176 51.327 24.632C51.327 24.0773 51.2257 23.5973 51.023 23.192C50.8203 22.7867 50.5377 22.472 50.175 22.248C49.823 22.024 49.407 21.912 48.927 21.912C48.4897 21.912 48.0843 22.008 47.711 22.2C47.3483 22.392 47.0497 22.6747 46.815 23.048C46.591 23.4213 46.479 23.8693 46.479 24.392V25.032C46.479 25.5333 46.5963 25.96 46.831 26.312C47.0657 26.664 47.3697 26.936 47.743 27.128C48.1163 27.32 48.511 27.416 48.927 27.416ZM59.3625 29.304C58.5945 29.304 57.9172 29.1813 57.3305 28.936C56.7438 28.6907 56.2478 28.36 55.8425 27.944C55.4372 27.5173 55.1278 27.0373 54.9145 26.504C54.7118 25.9707 54.6105 25.416 54.6105 24.84V24.504C54.6105 23.9067 54.7172 23.3413 54.9305 22.808C55.1545 22.264 55.4692 21.784 55.8745 21.368C56.2905 20.9413 56.7918 20.6107 57.3785 20.376C57.9652 20.1307 58.6265 20.008 59.3625 20.008C60.0985 20.008 60.7598 20.1307 61.3465 20.376C61.9332 20.6107 62.4292 20.9413 62.8345 21.368C63.2505 21.784 63.5652 22.264 63.7785 22.808C63.9918 23.3413 64.0985 23.9067 64.0985 24.504V24.84C64.0985 25.416 63.9918 25.9707 63.7785 26.504C63.5758 27.0373 63.2718 27.5173 62.8665 27.944C62.4612 28.36 61.9652 28.6907 61.3785 28.936C60.7918 29.1813 60.1198 29.304 59.3625 29.304ZM59.3625 27.4C59.9065 27.4 60.3652 27.2827 60.7385 27.048C61.1118 26.8027 61.3945 26.4773 61.5865 26.072C61.7785 25.656 61.8745 25.1867 61.8745 24.664C61.8745 24.1307 61.7732 23.6613 61.5705 23.256C61.3785 22.84 61.0905 22.5147 60.7065 22.28C60.3332 22.0347 59.8852 21.912 59.3625 21.912C58.8398 21.912 58.3865 22.0347 58.0025 22.28C57.6292 22.5147 57.3412 22.84 57.1385 23.256C56.9358 23.6613 56.8345 24.1307 56.8345 24.664C56.8345 25.1867 56.9305 25.656 57.1225 26.072C57.3252 26.4773 57.6132 26.8027 57.9865 27.048C58.3598 27.2827 58.8185 27.4 59.3625 27.4ZM68.6859 29.272C67.6832 29.272 66.9045 28.9413 66.3499 28.28C65.8059 27.6187 65.5339 26.6373 65.5339 25.336V20.296H67.7579V25.528C67.7579 26.0613 67.9072 26.488 68.2059 26.808C68.5045 27.1173 68.9099 27.272 69.4219 27.272C69.9339 27.272 70.3499 27.1067 70.6699 26.776C71.0005 26.4453 71.1659 25.9973 71.1659 25.432V20.296H73.3899V29H71.6299V25.304H71.8059C71.8059 26.1787 71.6939 26.9093 71.4699 27.496C71.2459 28.0827 70.9099 28.5253 70.4619 28.824C70.0139 29.1227 69.4539 29.272 68.7819 29.272H68.6859ZM79.4006 29.112C78.6006 29.112 77.9393 29.0107 77.4166 28.808C76.9046 28.5947 76.5206 28.2427 76.2646 27.752C76.0086 27.2507 75.8806 26.5787 75.8806 25.736L75.8966 17.864H77.9766L77.9606 25.88C77.9606 26.3067 78.0726 26.6373 78.2966 26.872C78.5313 27.096 78.862 27.208 79.2886 27.208H80.6486V29.112H79.4006ZM74.5046 21.944V20.312H80.6486V21.944H74.5046ZM90.3204 29.304C89.2324 29.304 88.315 29.096 87.5684 28.68C86.8217 28.264 86.251 27.6827 85.8564 26.936C85.4724 26.1787 85.2804 25.2933 85.2804 24.28V17.32H87.5524V24.408C87.5524 24.9627 87.659 25.4533 87.8724 25.88C88.0857 26.296 88.395 26.6213 88.8004 26.856C89.2164 27.08 89.723 27.192 90.3204 27.192C90.907 27.192 91.403 27.08 91.8084 26.856C92.2244 26.6213 92.5337 26.296 92.7364 25.88C92.9497 25.464 93.0564 24.9733 93.0564 24.408V17.32H95.3284V24.28C95.3284 25.2933 95.1364 26.1787 94.7524 26.936C94.379 27.6827 93.819 28.264 93.0724 28.68C92.3257 29.096 91.4084 29.304 90.3204 29.304ZM100.645 29.272C99.4501 29.272 98.5114 29.0213 97.8288 28.52C97.1568 28.008 96.8048 27.304 96.7728 26.408H98.7728C98.8048 26.7067 98.9701 26.9787 99.2688 27.224C99.5674 27.4693 100.037 27.592 100.677 27.592C101.21 27.592 101.631 27.496 101.941 27.304C102.261 27.112 102.421 26.8507 102.421 26.52C102.421 26.232 102.298 26.0027 102.053 25.832C101.818 25.6613 101.413 25.5493 100.837 25.496L100.069 25.416C99.0981 25.3093 98.3514 25.032 97.8288 24.584C97.3061 24.136 97.0448 23.5387 97.0448 22.792C97.0448 22.1947 97.1941 21.6933 97.4928 21.288C97.7914 20.8827 98.2021 20.5787 98.7248 20.376C99.2581 20.1627 99.8661 20.056 100.549 20.056C101.615 20.056 102.479 20.2907 103.141 20.76C103.802 21.2293 104.149 21.9173 104.181 22.824H102.181C102.159 22.5253 102.01 22.2693 101.733 22.056C101.455 21.8427 101.055 21.736 100.533 21.736C100.063 21.736 99.7008 21.8267 99.4448 22.008C99.1888 22.1893 99.0608 22.424 99.0608 22.712C99.0608 22.9893 99.1621 23.2027 99.3648 23.352C99.5781 23.5013 99.9194 23.6027 100.389 23.656L101.157 23.736C102.181 23.8427 102.981 24.1253 103.557 24.584C104.143 25.0427 104.437 25.6613 104.437 26.44C104.437 27.016 104.277 27.5173 103.957 27.944C103.647 28.36 103.21 28.6853 102.645 28.92C102.079 29.1547 101.413 29.272 100.645 29.272Z" fill="url(#paint1_linear_62_140)"/>
<path d="M31 31H105.013V31.8H31V31Z" fill="url(#paint2_linear_62_140)"/>
<path d="M109 29L119 19M119 19H111M119 19V27" stroke="url(#paint3_linear_62_140)" stroke-width="2" stroke-linecap="round" stroke-linejoin="round"/>
</g>
</g>
<defs>
<filter id="filter0_d_62_140" x="0" y="0" width="159" height="50" filterUnits="userSpaceOnUse" color-interpolation-filters="sRGB">
<feFlood flood-opacity="0" result="BackgroundImageFix"/>
<feColorMatrix in="SourceAlpha" type="matrix" values="0 0 0 0 0 0 0 0 0 0 0 0 0 0 0 0 0 0 127 0" result="hardAlpha"/>
<feOffset dx="2" dy="2"/>
<feComposite in2="hardAlpha" operator="out"/>
<feColorMatrix type="matrix" values="0 0 0 0 0 0 0 0 0 0 0 0 0 0 0 0 0 0 0.06 0"/>
<feBlend mode="normal" in2="BackgroundImageFix" result="effect1_dropShadow_62_140"/>
<feBlend mode="normal" in="SourceGraphic" in2="effect1_dropShadow_62_140" result="shape"/>
</filter>
<filter id="filter1_d_62_140" x="31" y="12" width="97" height="26" filterUnits="userSpaceOnUse" color-interpolation-filters="sRGB">
<feFlood flood-opacity="0" result="BackgroundImageFix"/>
<feColorMatrix in="SourceAlpha" type="matrix" values="0 0 0 0 0 0 0 0 0 0 0 0 0 0 0 0 0 0 127 0" result="hardAlpha"/>
<feOffset dx="2" dy="2"/>
<feComposite in2="hardAlpha" operator="out"/>
<feColorMatrix type="matrix" values="0 0 0 0 0 0 0 0 0 0 0 0 0 0 0 0 0 0 0.06 0"/>
<feBlend mode="normal" in2="BackgroundImageFix" result="effect1_dropShadow_62_140"/>
<feBlend mode="normal" in="SourceGraphic" in2="effect1_dropShadow_62_140" result="shape"/>
</filter>
<linearGradient id="paint0_linear_62_140" x1="1.19149" y1="1.19046" x2="177.505" y2="56.6334" gradientUnits="userSpaceOnUse">
<stop stop-color="#E65C00"/>
<stop offset="1" stop-color="#FF8C42"/>
</linearGradient>
<linearGradient id="paint1_linear_62_140" x1="31.5803" y1="14.496" x2="114.708" y2="45.0494" gradientUnits="userSpaceOnUse">
<stop stop-color="#E65C00"/>
<stop offset="1" stop-color="#FF8C42"/>
</linearGradient>
<linearGradient id="paint2_linear_62_140" x1="31.5803" y1="14.496" x2="114.708" y2="45.0494" gradientUnits="userSpaceOnUse">
<stop stop-color="#E65C00"/>
<stop offset="1" stop-color="#FF8C42"/>
</linearGradient>
<linearGradient id="paint3_linear_62_140" x1="109.077" y1="19.248" x2="121.539" y2="20.4694" gradientUnits="userSpaceOnUse">
<stop stop-color="#E65C00"/>
<stop offset="1" stop-color="#FF8C42"/>
</linearGradient>
</defs>
</svg>
